<svg width="167" height="30" viewBox="0 0 167 30" fill="none" xmlns="http://www.w3.org/2000/svg">
<path fill-rule="evenodd" clip-rule="evenodd" d="M8.23685 0.506592L0.357208 22.8843H7.41206L8.23685 19.9343H15.4145L16.2776 22.8843H23.4514L15.566 0.506592H8.23685ZM11.841 7.25581L14.1677 15.2701H9.61022L11.841 7.25581Z" fill="#2F2F2F"/>
<path fill-rule="evenodd" clip-rule="evenodd" d="M36.1188 10.7007H33.1265V5.73006H35.1674C36.7019 5.73006 39.0171 6.00925 39.0171 8.09239C39.0171 10.0154 37.7953 10.7007 36.1188 10.7007ZM38.5836 12.2001L43.3597 14.0685C45.0745 12.7019 45.8897 10.6343 45.8897 8.05725C45.8897 3.46145 42.8322 0.505615 36.5139 0.505615H25.9182V22.8852H33.1265V15.9232H36.7575C37.3696 15.923 37.9811 15.8884 38.5894 15.8197L38.5836 12.2001Z" fill="#2F2F2F"/>
<path fill-rule="evenodd" clip-rule="evenodd" d="M39.5481 13.6257V27.05C40.0583 27.2452 44.8115 29.1117 45.8396 29.5138V16.0876L39.5481 13.6257Z" fill="#2F2F2F"/>
<path fill-rule="evenodd" clip-rule="evenodd" d="M57.7262 0.504028L61.6027 14.4593L65.4831 0.504028H74.1837V22.8817H67.71V16.0485C67.7291 13.5338 67.8821 11.022 68.1684 8.52422H68.1051L64.1078 22.8856H59.0996L55.0984 8.52032H55.0389C55.2518 10.4824 55.4973 13.4949 55.4973 15.2988V22.8817H49.0218V0.504028H57.7262Z" fill="#2F2F2F"/>
<path fill-rule="evenodd" clip-rule="evenodd" d="M89.55 15.2656L87.2291 7.24934L84.9925 15.2656H89.55ZM90.9483 0.504028L98.8318 22.8836H91.6599L90.7949 19.9317H83.6173L82.7944 22.8836H75.7395L83.6173 0.504028H90.9483Z" fill="#2F2F2F"/>
<path fill-rule="evenodd" clip-rule="evenodd" d="M108.06 17.667H109.594C112.953 17.667 114.785 15.8611 114.785 11.6343C114.785 6.97407 113.288 5.73043 109.441 5.73043H108.06V17.667ZM100.853 0.504028H110.505C117.587 0.504028 121.987 3.86204 121.987 11.2263C121.987 19.6525 117.374 22.8836 110.319 22.8836H100.853V0.504028Z" fill="#2F2F2F"/>
<path fill-rule="evenodd" clip-rule="evenodd" d="M135.483 15.2656L133.162 7.24934L130.931 15.2656H135.483ZM136.885 0.504028L144.765 22.8836H137.589L136.736 19.9317H129.556L128.733 22.8836H121.678L129.556 0.504028H136.885Z" fill="#2F2F2F"/>
<path d="M141.343 0.486206V6.13041L143.307 11.7375H147.257V0.486206H141.343Z" fill="#2F2F2F"/>
<path fill-rule="evenodd" clip-rule="evenodd" d="M166.357 17.9537H157.452L161.144 15.3239C164.384 13.0006 166.131 11.1498 166.131 7.63361C166.141 3.41462 162.903 0.564209 158.184 0.564209C153.999 0.564209 151.707 2.2276 149.395 5.27129L153.435 8.68592C155.131 6.70821 156.272 5.86089 157.722 5.86089C159.172 5.86089 160.137 6.71602 160.137 8.10022C160.137 9.42 159.397 10.486 157.361 12.0557L149.271 18.3305V22.9126H166.357V17.9537Z" fill="#2F2F2F"/>
</svg>
