<svg width="216" height="22" viewBox="0 0 216 22" fill="none" xmlns="http://www.w3.org/2000/svg">
<path fill-rule="evenodd" clip-rule="evenodd" d="M20.3759 10.6878C21.3351 11.104 22.0766 11.6723 22.5981 12.3916C23.1207 13.112 23.3825 13.9724 23.3825 14.9728C23.3825 17.2869 22.4069 19.0277 20.4557 20.1953C18.5044 21.3638 15.9928 21.9471 12.9228 21.9471H-0.000396729L4.47778 0.0528564H16.3446C18.9677 0.0528564 20.9619 0.506069 22.3271 1.41349C23.6913 2.32092 24.3734 3.60852 24.3734 5.2753C24.3734 6.50588 24.0216 7.58639 23.318 8.51382C22.6145 9.44126 21.6337 10.1656 20.3759 10.6868V10.6878ZM10.8428 5.21327L10.1719 8.4668H14.0099C15.6737 8.4668 16.5052 7.8305 16.5052 6.55891C16.5052 6.1207 16.3344 5.78754 15.9938 5.55844C15.6523 5.32833 15.1614 5.21327 14.5212 5.21327H10.8428ZM13.338 16.7867C14.105 16.7867 14.7247 16.6146 15.1931 16.2705C15.6635 15.9263 15.8977 15.4311 15.8977 14.7848C15.8977 14.3255 15.7208 13.9714 15.369 13.7213C15.0172 13.4711 14.5754 13.3461 14.0416 13.3461H9.17992L8.47634 16.7867H13.338ZM35.4733 5.62047L34.9619 8.18467H44.4296L43.3425 13.5022H33.8421L33.2664 16.3795H44.494L43.3425 21.9471H24.7252L29.2044 0.0528564H47.4045L46.253 5.62047H35.4743H35.4733ZM54.4096 5.77654H47.8524L49.0356 0.0528564H69.6993L68.5171 5.77654H61.9599L58.6649 21.9471H51.1157L54.4107 5.77654H54.4096Z" fill="#2F2F2F"/>
<path fill-rule="evenodd" clip-rule="evenodd" d="M110.203 0.0528564L98.5605 21.9471H90.4672L89.1889 10.4057L83.0469 21.9471H74.9537L72.2672 0.0528564H79.7202L81.1591 12.5327L87.8125 0.0528564H94.7542L96.0325 12.7208L102.783 0.0528564H110.204H110.203ZM112.347 0.0528564H119.896L115.417 21.9471H107.869L112.347 0.0528564ZM145.614 0.0528564L141.134 21.9471H134.93L128.501 11.7503L126.421 21.9471H119.064L123.543 0.0528564H129.747L136.177 10.2496L138.257 0.0528564H145.614ZM171.331 0.0528564L166.852 21.9471H160.648L154.218 11.7503L152.139 21.9471H144.781L149.26 0.0528564H155.466L161.895 10.2496L163.974 0.0528564H171.331ZM181.247 5.62047L180.735 8.18467H190.203L189.116 13.5022H179.616L179.04 16.3795H190.268L189.116 21.9471H170.5L174.978 0.0528564H193.178L192.027 5.62047H181.248H181.247ZM215.857 7.24723C215.857 9.18614 215.33 10.8799 214.273 12.3296C213.218 13.7783 211.731 14.8578 209.811 15.5671L213.554 21.9471H205.717L202.551 16.4425H200.696L199.576 21.9471H192.027L196.506 0.0528564H206.548C209.491 0.0528564 211.779 0.683152 213.41 1.94474C215.041 3.20633 215.857 4.97416 215.857 7.24723ZM208.212 7.96657C208.212 6.48587 207.274 5.74552 205.398 5.74552H202.871L201.814 10.8749H204.917C205.962 10.8749 206.773 10.6198 207.349 10.1086C207.925 9.59833 208.212 8.884 208.212 7.96657Z" fill="#2F2F2F"/>
</svg>
