<svg width="132" height="132" viewBox="0 0 132 132" fill="none" xmlns="http://www.w3.org/2000/svg">
<rect width="132" height="132" rx="66" fill="white"/>
<path d="M41.8111 72H44.0711L38.4911 64.74L43.6111 58H41.3711L36.8911 63.96H35.0311V58H33.2711V72H35.0311V65.6H36.8911L41.8111 72ZM55.0656 66.66C55.0656 63.5 52.9056 60.98 49.6256 60.98C46.4856 60.98 44.1256 63.4 44.1256 66.6C44.1256 69.82 46.4856 72.24 49.6256 72.24C51.9656 72.24 53.8656 70.94 54.7856 68.72H52.9856C52.3256 69.88 51.1256 70.58 49.6256 70.58C47.5856 70.58 46.0856 69.26 45.8256 67.26H55.0256C55.0456 67.06 55.0656 66.86 55.0656 66.66ZM49.6256 62.58C51.5456 62.58 53.0056 63.78 53.3656 65.7H45.8656C46.2056 63.82 47.6656 62.58 49.6256 62.58ZM64.7023 57.76H59.4423V59.04H64.7023V57.76ZM65.5623 61.2L59.2423 68.88V61.2H57.6023V72H58.5823L64.8823 64.3V72H66.5023V61.2H65.5623ZM74.6866 72.24C77.2466 72.24 79.3066 70.7 79.9666 68.32H78.2466C77.5866 69.76 76.2666 70.6 74.6866 70.6C72.4866 70.6 70.8066 68.86 70.8066 66.6C70.8066 64.36 72.4666 62.62 74.6866 62.62C76.2866 62.62 77.6266 63.46 78.2466 64.86H79.9466C79.2866 62.5 77.2666 60.98 74.6866 60.98C71.4866 60.98 69.0666 63.38 69.0666 66.6C69.0666 69.82 71.4866 72.24 74.6866 72.24Z" fill="#191919"/>
<path d="M91 71L101 61" stroke="#FF5C00" stroke-width="1.5" stroke-linecap="round" stroke-linejoin="round"/>
<path d="M91 61H101V71" stroke="#FF5C00" stroke-width="1.5" stroke-linecap="round" stroke-linejoin="round"/>
</svg>
