<svg width="95" height="90" viewBox="0 0 95 90" fill="none" xmlns="http://www.w3.org/2000/svg">
<path d="M31.5584 24.6137C30.9186 22.927 30.3369 22.7525 29.4063 21.531C32.3145 22.3453 39.2359 21.8219 41.5625 21.0076C41.4462 20.9494 41.2717 20.7167 41.2135 20.8331C41.1553 20.9494 40.9227 20.7167 40.8645 20.6586C39.0033 20.1933 39.0615 20.4841 37.2584 20.4259C31.7328 20.2514 22.7757 16.878 17.6573 14.6096C15.3307 13.5626 12.7134 12.0504 10.445 11.2361C11.7827 13.9116 17.3083 18.1575 20.3328 19.4371C20.2165 19.4953 20.1001 19.4953 20.042 19.6116C19.9838 19.728 19.8093 19.728 19.693 19.7861C18.9369 19.9025 18.995 19.9025 18.1807 19.9025C23.8808 27.0566 26.0328 22.8106 31.5584 24.6137Z" fill="#2F2F2F"/>
<path d="M5.26853 32.1749C3.46546 34.676 2.01137 37.1189 0.557281 40.6087C2.47668 39.8525 3.69811 38.9219 5.73384 38.7474C4.0471 43.4005 2.88382 46.774 2.47668 52.474C4.57057 50.6128 2.41852 51.7179 7.88589 47.4138C8.58385 50.8455 8.58385 52.5322 9.74713 55.4404C12.1318 61.3731 18.1808 67.3639 23.6482 70.2139V65.0374C24.8697 65.8517 25.5676 66.7241 27.0799 67.7129C28.4758 68.5853 29.3482 68.7017 30.5697 69.7486C30.5115 69.8068 30.337 69.8649 30.337 69.9231L29.4646 70.3884C26.8472 71.7262 28.0105 70.6211 26.9054 72.0752L32.3146 73.2384C33.5942 73.8201 33.0126 73.5874 33.4779 73.9364C31.7911 74.7507 29.5809 75.3323 27.8942 76.1466L35.5718 78.415C46.3902 82.4283 37.3748 85.6854 36.7932 86.2089C38.7126 86.965 45.0524 86.9069 47.0881 86.2671C46.5647 88.7681 45.5759 88.0701 44.2963 89.8732C45.983 89.6405 47.7279 88.4773 49.3565 87.8956C54.8821 85.8599 60.2331 85.9181 64.4209 82.2538C67.678 79.4038 66.5729 79.1129 66.8056 78.2405C66.9801 77.4262 68.8413 75.1578 69.4811 74.1109C71.924 70.0976 70.3536 69.5741 74.1924 68.469L76.2862 68.2945C77.5658 71.0282 72.7383 73.5874 71.575 75.3905C82.3353 74.9833 85.4179 66.4915 88.7914 64.3394C90.1873 63.4669 90.769 63.0598 91.7577 61.722C98.0394 53.4628 90.3037 48.5189 89.373 46.7158C88.3843 44.7383 89.6639 44.7964 87.8608 42.5862C86.0577 40.4342 86.8138 42.2372 86.523 38.7474C86.1159 33.3382 81.4046 30.3719 76.2281 26.9402C77.3332 22.2871 77.7985 22.229 76.2281 17.0524C71.226 17.2851 70.5281 17.2851 66.3403 15.6565C57.8484 12.3412 51.8575 6.46666 39.1197 6.17584C24.1717 5.82686 26.0911 9.66566 17.89 7.68809C8.87467 5.53604 4.80322 1.52276 1.02259 0.126831C1.02259 4.95441 3.23281 10.5963 4.86139 14.1442L10.2124 22.4616C11.4339 23.9739 10.9104 22.578 11.841 25.0208C9.57263 27.7545 9.28182 26.4749 5.26853 32.1749ZM63.5484 78.1823C59.3025 78.1823 55.0565 77.4844 51.1014 76.5537C46.8555 75.5068 46.2157 73.8782 44.3544 70.6792C44.7616 70.3884 44.4126 70.5629 45.2851 70.2721C45.2851 70.2721 46.2738 69.9813 46.3902 69.9813C52.4973 68.818 51.6831 69.5741 58.43 65.5027C57.5576 69.2251 53.6025 72.4823 51.5667 75.1578C53.6606 74.9833 53.428 74.7507 54.8239 75.6231C55.9872 76.0884 54.0096 75.6813 57.6157 75.6813C60.1168 75.6813 56.7433 75.6813 59.0698 76.0303C61.6872 76.4374 67.2127 72.4241 69.3066 71.0864C68.8413 73.1803 65.7586 78.1823 63.5484 78.1823ZM48.0187 57.0108C51.5667 58.1159 53.2535 62.7108 54.5912 66.4333C52.0902 66.8986 51.2759 67.6547 46.6228 68.2945C46.0412 65.619 44.9361 62.8272 43.3657 60.7333C40.7483 57.2435 39.1779 56.7781 36.735 58.4067C36.8513 56.5455 37.6075 54.6261 39.5269 54.6261C45.8085 54.6261 47.4953 60.2098 49.8218 64.5139C50.229 65.2119 49.9963 64.8629 50.3453 65.4445L50.7524 66.0261C50.8106 62.1873 49.531 59.4537 48.0187 57.0108ZM57.2086 73.7037C57.2086 76.0303 56.627 72.8894 56.627 74.867L54.6494 73.0058C55.9872 72.0751 55.3474 72.017 56.9759 71.6098C56.9759 72.1333 57.2086 73.6456 57.2086 73.7037ZM61.1056 73.4711C59.8841 71.9588 57.6157 70.0976 58.6045 68.12C59.4188 66.4915 61.28 63.8159 60.9892 61.4312C60.1749 62.5945 57.7321 64.5721 56.0453 64.9792C55.5219 61.722 54.1259 58.9883 54.1841 55.0914C56.5688 54.2771 57.5576 54.0444 59.826 55.0914C66.4566 58.1159 63.8392 64.2812 61.2219 70.6211C64.7117 70.4466 67.5035 67.3639 70.1209 68.7017C67.6199 70.2139 64.4209 73.2384 61.1056 73.4711ZM77.1587 72.0752C77.9148 69.9231 79.6016 68.469 79.9505 65.5027C79.3689 65.8517 79.0781 66.0843 78.4383 66.1425C77.3332 66.2588 76.926 66.2006 76.8679 66.1425C76.4607 66.317 75.8209 66.5496 74.774 66.8986C73.6689 66.3751 74.5413 66.8986 73.9015 65.968C73.8434 65.8517 73.6107 65.5608 73.5526 65.3282C73.4944 65.1537 73.4362 65.0955 73.3781 64.9792C72.3893 65.4445 70.8189 65.9098 70.0046 66.317L69.6556 64.1649C67.0964 66.8404 66.3984 66.7241 63.6648 68.6435C64.479 65.6772 65.4097 64.2812 65.4097 60.3261C76.5771 66.5496 76.1699 62.769 80.1832 63.9323C81.6954 64.3976 81.8699 65.27 84.72 65.5027C83.2659 68.818 80.1832 70.5047 77.1587 72.0752ZM84.0802 37.7587C83.9057 38.3403 84.1965 42.6444 80.474 40.5505C81.1138 38.8638 80.2414 40.3178 82.1608 38.9801C83.3822 38.1076 82.5097 38.224 84.0802 37.7587ZM71.0515 19.8443C75.3556 20.1351 75.5301 19.1463 73.8434 25.9515C71.2842 24.2065 68.0852 21.3565 66.3984 18.9718C68.027 19.2045 69.3648 19.728 71.0515 19.8443ZM17.541 22.1708C16.3778 21.8218 16.2033 21.8218 14.9237 21.0075C10.7359 18.332 6.66446 10.9453 5.73384 6.234C10.9104 8.96769 22.1941 14.3187 29.988 13.0973C29.1738 12.7483 28.7085 12.632 28.0105 12.1667L26.3237 10.8289C31.5585 8.90953 39.5269 8.38606 45.983 9.66566C52.1484 10.8871 63.6647 17.2269 67.2127 21.3565C70.6444 25.3698 74.0179 28.2198 78.4383 31.7096C83.324 35.5484 83.4985 34.2688 81.8699 37.177C78.9036 37.1189 80.4158 37.0607 78.5546 35.7811C78.5546 38.8056 78.7873 39.2709 79.7179 41.423C83.8475 42.6444 85.1271 39.3872 85.0689 44.2148C83.7893 44.0403 83.6148 43.8077 82.7424 43.2842C83.4404 44.7964 90.2455 50.7873 91.2343 54.1026C91.2343 54.1026 92.6302 54.1026 91.1761 56.8945C89.8965 59.3955 87.8026 61.5476 84.6618 61.6057C86.174 60.5588 90.8271 58.6975 91.2343 54.1026C88.0934 54.1026 84.72 53.2883 82.1608 52.3577C74.425 49.5077 79.4852 49.0424 72.5056 40.4342C69.3648 36.5372 72.273 35.9556 68.6668 33.3964C68.6668 37.0025 67.2127 37.7005 64.3046 35.9556C59.1862 32.8729 60.4658 27.3474 48.8912 27.3474C50.1126 28.976 51.2177 28.5106 52.6718 30.6627C49.5892 30.0811 47.8443 30.3719 45.0524 31.128C45.1687 31.1862 45.3432 31.2443 45.4014 31.2443C47.9024 32.0005 49.3565 31.5933 52.0902 33.3964L49.4147 33.9199L51.0433 34.676C55.1147 36.1301 58.5464 40.2015 58.7208 39.9689C58.779 39.8525 58.9535 40.1434 59.0117 40.2597C56.5106 39.9689 55.4637 39.3872 53.4861 39.0964L54.9984 40.0852C58.8953 42.1791 62.5015 41.8301 65.9913 41.5393C69.1321 41.3066 73.6107 45.7852 74.425 48.1118C65.5842 45.1454 71.8658 45.5526 63.4903 46.076C63.8974 46.3669 63.6647 46.3087 64.4209 46.5995C64.5372 46.6577 64.9444 46.774 65.1188 46.8322C74.8903 49.7403 75.123 51.3108 81.172 59.9771C77.7985 63.2343 70.9934 60.9659 67.7362 59.221C60.1168 55.1496 58.1974 47.7628 55.9872 44.6801C53.8933 41.8301 43.5402 40.027 37.1422 44.5056C38.8871 44.5056 40.9228 43.6332 42.9585 43.4005C45.1106 43.1097 46.9136 43.4587 48.833 43.8658C53.3116 44.7964 56.3943 46.0179 56.5106 49.624C49.2984 47.0067 45.4596 46.2505 39.0034 50.2057C35.5717 52.2995 28.8829 57.6506 27.836 61.1404C29.2901 60.1516 28.8829 59.7445 30.6278 59.2792C31.384 63.0016 35.2809 63.0016 38.3054 64.8047C46.0994 69.4578 37.782 79.5201 63.0831 79.5201C61.3964 83.3589 53.8933 81.9048 50.9851 84.6966C50.5198 84.0568 50.5198 84.9293 50.8688 82.8354C48.8912 83.3007 46.6228 83.8242 44.2381 84.1732L46.5647 81.4395C43.0167 79.2293 45.6922 81.9048 42.0861 78.066C40.6901 76.5537 39.2942 76.3211 37.0258 75.565L40.1085 74.867C38.3636 72.2496 36.5024 72.5986 34.0595 71.1445C37.1422 70.97 37.433 71.2027 40.1085 71.668C34.8738 61.3149 22.7176 70.2721 22.7176 53.6373C20.8564 54.9751 19.8676 59.1047 20.8564 62.071C18.1808 61.0241 15.3308 57.1853 14.0512 54.3353C12.0155 49.9148 12.4226 47.4138 12.3645 41.7719L8.64202 42.8189C11.0849 36.1301 13.5278 36.5372 14.9818 33.8617C11.6665 33.8617 11.2012 34.2107 8.64202 34.7923C13.0043 26.3586 17.3666 26.0096 19.6349 24.0902C20.3911 23.4504 19.7513 24.2065 20.3911 23.2759L17.541 22.1708ZM65.4097 37.7587C64.1882 39.9689 60.6984 38.8638 59.0117 37.9913C56.5106 36.7117 55.8127 35.1413 57.4994 32.6403C58.8372 33.2801 59.3606 34.2688 61.0474 35.4903C62.5596 36.5954 63.4903 37.3515 65.4097 37.7587ZM36.2697 61.9547C35.9207 61.6057 35.6299 61.4312 35.3391 60.7914C35.1646 60.5006 34.9901 59.919 34.9319 59.6863C34.234 57.1853 34.8156 54.8006 36.5605 53.4047C35.5136 58.523 35.5136 56.1965 36.2697 61.9547Z" fill="#2F2F2F"/>
<path d="M36.1533 45.6109C37.1421 45.1455 36.6768 45.32 37.1421 44.6221L34.8737 45.5527C35.6298 45.7272 35.339 46.018 36.1533 45.6109Z" fill="#2F2F2F"/>
</svg>
