<svg width="169" height="38" viewBox="0 0 169 38" fill="none" xmlns="http://www.w3.org/2000/svg">
<path fill-rule="evenodd" clip-rule="evenodd" d="M32.0607 19C32.0607 43.0109 29.7163 43.0109 29.7163 19C29.7229 -5.0109 32.0607 -5.0109 32.0607 19Z" fill="#2F2F2F"/>
<path fill-rule="evenodd" clip-rule="evenodd" d="M88.4098 32.2402C94.0493 32.2402 97.2851 29.8035 99.6822 26.4951L94.373 22.7112C92.8474 24.5668 91.2823 25.8018 88.6277 25.8018C85.0618 25.8018 82.5524 22.8169 82.5524 19C82.5524 15.216 85.0618 12.1982 88.6277 12.1982C91.0645 12.1982 92.7748 13.3274 94.2276 15.1435L99.3917 11.1416C97.1398 8.01154 93.8974 5.75964 88.7004 5.75964C80.9873 5.75964 75.2817 11.5774 75.2817 19C75.2751 26.6734 81.1326 32.2402 88.4098 32.2402Z" fill="#2F2F2F"/>
<path fill-rule="evenodd" clip-rule="evenodd" d="M51.2382 32.2402C55.8608 32.2402 59.605 30.5298 62.2927 28.311V16.8536H50.5844V22.0177H55.6032V25.1082C54.5466 25.8016 53.2391 26.1648 51.5287 26.1648C47.4939 26.1648 44.6214 23.2196 44.6214 19.1055C44.6214 15.1433 47.4609 12.0463 51.1325 12.0463C53.6419 12.0463 55.4579 12.9179 57.2805 14.4499L61.4276 9.4642C58.7333 7.1397 55.5702 5.75293 51.0995 5.75293C43.2082 5.75293 37.3837 11.5707 37.3837 18.9933C37.3837 26.7789 43.3072 32.2402 51.2382 32.2402Z" fill="#2F2F2F"/>
<path fill-rule="evenodd" clip-rule="evenodd" d="M13.128 32.2402C18.7676 32.2402 22.0033 29.8035 24.4005 26.4951L19.0912 22.7112C17.5657 24.5668 16.0006 25.8018 13.346 25.8018C9.78 25.8018 7.27062 22.8169 7.27062 19C7.27062 15.216 9.78 12.1982 13.346 12.1982C15.7828 12.1982 17.4931 13.3274 18.9458 15.1435L24.11 11.1416C21.8581 8.01154 18.6157 5.75964 13.4186 5.75964C5.70556 5.75964 5.57819e-06 11.5774 5.57819e-06 19C-0.00659807 26.6734 5.85084 32.2402 13.128 32.2402Z" fill="#2F2F2F"/>
<path fill-rule="evenodd" clip-rule="evenodd" d="M69.9595 19C69.9595 43.0109 67.6152 43.0109 67.6152 19C67.6152 -5.0109 69.9595 -5.0109 69.9595 19Z" fill="#2F2F2F"/>
<path fill-rule="evenodd" clip-rule="evenodd" d="M117.525 14.0144C118.647 14.0144 119.334 13.605 119.962 12.9512L119.281 12.2645C118.767 12.7465 118.298 13.0437 117.558 13.0437C116.409 13.0437 115.577 12.0796 115.577 10.9041C115.577 9.70883 116.409 8.76453 117.558 8.76453C118.245 8.76453 118.76 9.06166 119.242 9.51078L119.922 8.7315C119.348 8.18341 118.674 7.79382 117.571 7.79382C115.749 7.79382 114.474 9.19377 114.474 10.9041C114.468 12.6541 115.769 14.0144 117.525 14.0144ZM124.749 13.9154V11.2276C124.749 10.0192 124.096 9.31262 122.755 9.31262C122.015 9.31262 121.527 9.4645 121.032 9.68906L121.316 10.5211C121.725 10.3494 122.108 10.2372 122.609 10.2372C123.33 10.2372 123.726 10.5806 123.726 11.2079V11.2937C123.376 11.1815 123.019 11.1023 122.471 11.1023C121.414 11.1023 120.635 11.5843 120.635 12.588C120.635 13.5126 121.388 14.0012 122.247 14.0012C122.933 14.0012 123.402 13.7172 123.713 13.3474V13.9021H124.749V13.9154ZM123.746 12.271C123.746 12.8324 123.23 13.2219 122.544 13.2219C122.055 13.2219 121.666 12.9842 121.666 12.555C121.666 12.0994 122.055 11.8353 122.702 11.8353C123.105 11.8353 123.475 11.9145 123.739 12.0135V12.271H123.746ZM125.984 13.9154H127.021V12.1852C127.021 10.9833 127.655 10.389 128.566 10.389H128.626V9.29285C127.826 9.25982 127.305 9.72209 127.021 10.4022V9.37867H125.984V13.9154ZM133.123 13.9154V11.2276C133.123 10.0192 132.469 9.31262 131.129 9.31262C130.389 9.31262 129.901 9.4645 129.405 9.68906L129.689 10.5211C130.098 10.3494 130.482 10.2372 130.983 10.2372C131.703 10.2372 132.099 10.5806 132.099 11.2079V11.2937C131.75 11.1815 131.393 11.1023 130.845 11.1023C129.788 11.1023 129.009 11.5843 129.009 12.588C129.009 13.5126 129.762 14.0012 130.62 14.0012C131.307 14.0012 131.776 13.7172 132.086 13.3474V13.9021H133.123V13.9154ZM132.112 12.271C132.112 12.8324 131.597 13.2219 130.91 13.2219C130.422 13.2219 130.032 12.9842 130.032 12.555C130.032 12.0994 130.422 11.8353 131.069 11.8353C131.473 11.8353 131.841 11.9145 132.105 12.0135V12.271H132.112ZM135.876 13.988C136.266 13.988 136.557 13.9021 136.814 13.7569V12.9116C136.61 13.0173 136.404 13.0635 136.167 13.0635C135.817 13.0635 135.606 12.8984 135.606 12.4956V10.2702H136.828V9.37867H135.606V8.13061H134.569V9.37867H133.994V10.2702H134.569V12.6541C134.569 13.6512 135.111 13.988 135.876 13.988ZM117.585 22.1039C118.647 22.1039 119.5 21.6746 120.094 21.1662V18.6435H117.538V19.5615H119.077V20.6841C118.707 20.9615 118.192 21.1398 117.624 21.1398C116.396 21.1398 115.583 20.2285 115.583 18.9936C115.583 17.8247 116.423 16.854 117.532 16.854C118.298 16.854 118.753 17.105 119.216 17.4946L119.882 16.6955C119.261 16.1738 118.621 15.8767 117.571 15.8767C115.762 15.8767 114.474 17.303 114.474 18.987C114.468 20.77 115.702 22.1039 117.585 22.1039ZM121.401 22.0048H122.438V15.738H121.401V22.0048ZM125.952 22.1039C127.351 22.1039 128.382 21.0274 128.382 19.7397C128.382 18.4256 127.358 17.3691 125.971 17.3691C124.578 17.3691 123.547 18.4389 123.547 19.7397C123.547 21.0473 124.571 22.1039 125.952 22.1039ZM125.971 21.2058C125.165 21.2058 124.591 20.5388 124.591 19.7464C124.591 18.9408 125.126 18.287 125.958 18.287C126.777 18.287 127.351 18.9473 127.351 19.7464C127.345 20.5454 126.81 21.2058 125.971 21.2058ZM132.014 22.0972C133.096 22.0972 134.127 21.2454 134.127 19.7464C134.127 18.2276 133.09 17.3757 132.014 17.3757C131.287 17.3757 130.812 17.752 130.475 18.2276V15.738H129.438V22.0048H130.475V21.2983C130.792 21.7209 131.267 22.0972 132.014 22.0972ZM131.77 21.1992C131.063 21.1992 130.449 20.6247 130.449 19.7464C130.449 18.8615 131.069 18.2804 131.77 18.2804C132.475 18.2804 133.063 18.8548 133.063 19.7332C133.07 20.6379 132.482 21.1992 131.77 21.1992ZM138.994 22.0048V19.3171C138.994 18.1087 138.34 17.4021 136.999 17.4021C136.26 17.4021 135.77 17.554 135.276 17.7785L135.559 18.6105C135.969 18.4389 136.353 18.3266 136.854 18.3266C137.574 18.3266 137.97 18.6699 137.97 19.2973V19.3832C137.619 19.2709 137.264 19.1916 136.715 19.1916C135.659 19.1916 134.879 19.6738 134.879 20.6775C134.879 21.602 135.632 22.0972 136.491 22.0972C137.178 22.0972 137.646 21.8134 137.956 21.4435V22.0048H138.994ZM137.99 20.3605C137.99 20.9285 137.475 21.3114 136.788 21.3114C136.3 21.3114 135.91 21.0737 135.91 20.6445C135.91 20.1888 136.3 19.9246 136.947 19.9246C137.349 19.9246 137.719 20.0039 137.983 20.103V20.3605H137.99ZM140.288 22.0048H141.324V15.738H140.288V22.0048ZM117.525 30.1933C118.647 30.1933 119.334 29.7839 119.962 29.1302L119.281 28.4434C118.767 28.9254 118.298 29.2226 117.558 29.2226C116.409 29.2226 115.577 28.2585 115.577 27.0831C115.577 25.8878 116.409 24.9435 117.558 24.9435C118.245 24.9435 118.76 25.2406 119.242 25.6896L119.922 24.9105C119.348 24.3624 118.674 23.9727 117.571 23.9727C115.749 23.9727 114.474 25.3727 114.474 27.0831C114.468 28.8331 115.769 30.1933 117.525 30.1933ZM123.019 30.1933C124.42 30.1933 125.449 29.1169 125.449 27.8292C125.449 26.5151 124.426 25.4586 123.039 25.4586C121.646 25.4586 120.616 26.5284 120.616 27.8292C120.616 29.1368 121.633 30.1933 123.019 30.1933ZM123.032 29.2952C122.227 29.2952 121.653 28.6283 121.653 27.8358C121.653 27.0302 122.187 26.3765 123.019 26.3765C123.838 26.3765 124.413 27.0368 124.413 27.8358C124.413 28.6349 123.877 29.2952 123.032 29.2952ZM126.5 30.0943H127.536V27.5387C127.536 26.8321 127.959 26.416 128.56 26.416C129.181 26.416 129.531 26.8189 129.531 27.5255V30.1009H130.567V27.2151C130.567 26.1585 129.972 25.4717 128.956 25.4717C128.249 25.4717 127.833 25.8415 127.542 26.2708V25.5642H126.506V30.0943H126.5ZM133.38 30.1802C134.325 30.1802 135.065 29.7113 135.065 28.7537C135.065 27.9217 134.318 27.6179 133.657 27.4132C133.631 27.4066 133.599 27.3935 133.572 27.3868C133.076 27.2217 132.635 27.0831 132.635 26.7793C132.635 26.4953 132.865 26.3104 133.269 26.3104C133.644 26.3104 134.107 26.4754 134.549 26.7397L134.959 26C134.477 25.683 133.863 25.485 133.295 25.485C132.39 25.485 131.683 26.0067 131.683 26.8651C131.683 27.75 132.429 28.0208 133.096 28.2189C133.123 28.2254 133.149 28.2387 133.176 28.2453C133.671 28.3906 134.114 28.5094 134.114 28.8462C134.114 29.1632 133.856 29.3546 133.407 29.3546C132.945 29.3546 132.409 29.1632 131.921 28.7934L131.459 29.5C132.02 29.949 132.733 30.1802 133.38 30.1802ZM137.548 30.167C137.936 30.167 138.227 30.0811 138.485 29.9358V29.0905C138.28 29.1962 138.076 29.2424 137.845 29.2424C137.495 29.2424 137.29 29.0774 137.29 28.6746V26.449H138.512V25.5575H137.29V24.3161H136.253V25.5575H135.679V26.449H136.253V28.8329C136.246 29.8302 136.788 30.167 137.548 30.167ZM139.548 30.0943H140.585V28.3642C140.585 27.1623 141.219 26.5679 142.131 26.5679H142.189V25.4717C141.391 25.4387 140.869 25.901 140.585 26.5812V25.5575H139.548V30.0943ZM144.659 30.1867C145.366 30.1867 145.782 29.8169 146.079 29.3877V30.0943H147.116V25.5642H146.079V28.1198C146.079 28.8198 145.656 29.2424 145.056 29.2424C144.435 29.2424 144.085 28.8396 144.085 28.133V25.5575H143.048V28.4434C143.042 29.5 143.636 30.1867 144.659 30.1867ZM150.51 30.1933C151.395 30.1933 151.917 29.8433 152.366 29.3415L151.738 28.7207C151.415 29.0575 151.052 29.2887 150.563 29.2887C149.764 29.2887 149.21 28.6349 149.21 27.8292C149.21 27.0236 149.758 26.3698 150.517 26.3698C151.039 26.3698 151.375 26.6009 151.692 26.9377L152.332 26.2444C151.911 25.7821 151.381 25.4651 150.523 25.4651C149.17 25.4651 148.173 26.5481 148.173 27.8358C148.166 29.1368 149.163 30.1933 150.51 30.1933ZM154.835 30.167C155.219 30.167 155.516 30.0811 155.773 29.9358V29.0905C155.569 29.1962 155.363 29.2424 155.126 29.2424C154.776 29.2424 154.565 29.0774 154.565 28.6746V26.449H155.786V25.5575H154.565V24.3161H153.528V25.5575H152.953V26.449H153.528V28.8329C153.534 29.8302 154.077 30.167 154.835 30.167ZM156.857 24.8642H157.972V23.8736H156.857V24.8642ZM156.902 30.0943H157.939V25.5642H156.902V30.0943ZM161.446 30.1933C162.846 30.1933 163.876 29.1169 163.876 27.8292C163.876 26.5151 162.852 25.4586 161.466 25.4586C160.072 25.4586 159.042 26.5284 159.042 27.8292C159.048 29.1368 160.066 30.1933 161.446 30.1933ZM161.466 29.2952C160.66 29.2952 160.085 28.6283 160.085 27.8358C160.085 27.0302 160.62 26.3765 161.453 26.3765C162.265 26.3765 162.846 27.0368 162.846 27.8358C162.846 28.6349 162.305 29.2952 161.466 29.2952ZM164.932 30.0943H165.97V27.5387C165.97 26.8321 166.392 26.416 166.992 26.416C167.613 26.416 167.963 26.8189 167.963 27.5255V30.1009H169.001V27.2151C169.001 26.1585 168.406 25.4717 167.389 25.4717C166.683 25.4717 166.267 25.8415 165.976 26.2708V25.5642H164.939V30.0943H164.932Z" fill="#2F2F2F"/>
</svg>
