<svg width="76" height="104" viewBox="0 0 76 104" fill="none" xmlns="http://www.w3.org/2000/svg">
<path d="M12.6808 64.2739C12.3507 65.2767 12.1227 66.3101 12.0002 67.3585L12.1908 67.4265C12.2826 66.3653 12.4602 65.3133 12.7217 64.2807L12.6808 64.2739ZM48.4687 90.9279C48.6177 91.3352 48.736 91.7531 48.8227 92.178L48.9792 92.212C48.8467 91.7702 48.6876 91.3369 48.5028 90.9143L48.4687 90.9279ZM53.3217 88.8896C53.4577 88.3109 53.5487 87.7226 53.5939 87.1299H53.5531C53.4483 87.8233 53.2797 88.5056 53.0494 89.1681L52.9065 89.3176C52.328 89.9155 51.6814 90.5406 51.0075 91.1589C51.1765 90.034 51.1971 88.8919 51.0688 87.7617C51.1278 88.9648 51.0317 90.1705 50.7829 91.3491C50.4154 91.6752 50.0342 91.9946 49.6531 92.3003L50.0614 92.375C50.7421 91.7975 51.4227 91.1793 52.0081 90.5678C53.1451 90.5964 54.2827 90.5396 55.4113 90.3979V90.3571C54.3573 90.4237 53.3002 90.4237 52.2463 90.3571C53.5174 89.0269 54.7083 87.6225 55.8128 86.1515C55.8128 86.1515 54.7919 87.3677 53.3217 88.91V88.8896ZM24.1904 87.9044H24.1496C24.2262 88.1449 24.2876 88.39 24.3333 88.6382C24.4055 89.0738 24.4396 89.5148 24.4354 89.9563C23.5642 89.338 22.6522 88.7809 21.781 88.2781C20.2619 87.4157 18.6963 86.6377 17.0914 85.9477V85.9884C17.0914 85.9884 18.8202 86.797 20.9233 88.0267L21.1956 88.1898C20.5539 88.1074 19.9043 88.1074 19.2626 88.1898V88.2237C20.0773 88.2055 20.8911 88.2877 21.6857 88.4683C23.0085 89.2584 24.2731 90.1416 25.47 91.1113C24.3716 91.0113 23.2651 91.0479 22.1757 91.22V91.2676C23.3785 91.1553 24.5907 91.1964 25.7831 91.3899C26.0962 91.6617 26.3821 91.9334 26.6611 92.212L27.0627 92.1237C26.3115 91.3747 25.4962 90.6927 24.626 90.0854C24.6256 89.3261 24.4704 88.5748 24.17 87.8772L24.1904 87.9044ZM57.6982 39.3865L59.8286 48.5248L63.0276 49.0683L60.5773 40.2154L57.6982 39.3865ZM30.18 16.2859L30.2209 16.1636L37.5445 18.331L37.7623 10.7078H37.8848L38.1163 18.3242L45.4603 16.2248V16.3471L38.2456 18.8474L42.5404 25.2068L42.4451 25.2748L37.8168 19.2075L33.134 25.2068L33.0319 25.1321L37.3744 18.8542L30.18 16.2859ZM29.6968 29.8745L37.8304 25.0777L45.9436 29.8609L43.9697 20.6139L50.9667 14.4379L41.6215 13.3984L37.8236 4.72207L34.0324 13.3984L24.6805 14.4379L31.6842 20.6139L29.6968 29.8745ZM38.1571 95.7178C38.4089 95.7178 38.6403 95.7178 38.6403 95.5344V94.1755C38.6403 93.8698 38.4906 93.7951 38.1571 93.7951V95.7178ZM37.0204 94.1959V95.5548C37.0204 95.6771 37.1838 95.7382 37.5037 95.7382V93.829C37.2246 93.829 37.0204 93.829 37.0204 94.2163V94.1959ZM12.8101 70.151C12.7976 70.0578 12.756 69.9709 12.6912 69.9027C12.6265 69.8344 12.5419 69.7882 12.4494 69.7705C12.218 69.7705 12.2588 69.92 12.2997 70.0694L12.5923 71.2448C12.6025 71.3314 12.6416 71.4121 12.7034 71.4737C12.7651 71.5354 12.8459 71.5744 12.9327 71.5846C13.13 71.5846 13.1437 71.4623 13.1028 71.3128L12.8101 70.151ZM47.3933 79.561C47.1551 79.9143 46.9033 80.2405 46.6378 80.5734C46.7078 80.3539 46.74 80.1242 46.7331 79.894C46.7297 79.6402 46.7 79.3875 46.6446 79.1398C47.1685 78.3906 47.5897 77.5748 47.897 76.7142C48.2071 75.7635 48.3947 74.7772 48.4551 73.7791C48.6351 73.618 48.7971 73.4381 48.9384 73.2424C49.1 73.0423 49.2182 72.811 49.2855 72.5629C49.2855 72.7871 49.2855 73.0114 49.2855 73.2424C49.2834 75.4874 48.6258 77.6831 47.3933 79.561ZM44.9907 79.7105C44.3656 79.9577 43.7074 80.1111 43.0373 80.1657L40.41 76.4357C40.818 75.7954 41.1191 75.0932 41.3016 74.3566C41.5397 73.6964 41.7085 73.0133 41.8053 72.3183L46.0729 70.7692C46.5973 71.2192 47.0556 71.7407 47.4342 72.3183C47.6968 72.7996 47.9243 73.2991 48.1148 73.8131C48.0504 74.7506 47.8721 75.6769 47.5839 76.5716C47.2934 77.3893 46.8976 78.1658 46.4064 78.8816C45.9614 79.1917 45.4872 79.4579 44.9907 79.6765V79.7105ZM41.642 82.0953C40.8184 83.0193 40.4645 83.0805 40.41 83.2503C39.5803 83.4652 38.7282 83.5815 37.8712 83.5968C37.0018 83.5929 36.1367 83.4741 35.2984 83.2435C35.244 83.0737 34.89 83.0125 34.0665 82.0885C33.6474 81.592 33.3055 81.0355 33.0523 80.4375L35.7749 76.6395C36.4713 76.7789 37.182 76.8337 37.8916 76.8026C38.5897 76.8232 39.288 76.7685 39.9744 76.6395L42.731 80.3152C42.4543 80.9535 42.09 81.5503 41.6488 82.0885L41.642 82.0953ZM37.7827 84.6907C36.3691 84.6931 34.9677 84.4304 33.6513 83.9162C33.9269 83.9339 34.2031 83.8921 34.4612 83.7939C34.6814 83.715 34.8953 83.6196 35.101 83.5085C36.0021 83.7662 36.9339 83.9011 37.8712 83.9094C38.5576 83.8962 39.2412 83.8188 39.9131 83.6784C40.1922 83.6172 40.4304 83.5629 40.5938 83.5153C40.7943 83.6255 41.0038 83.7187 41.22 83.7939C41.4379 83.8743 41.6683 83.9157 41.9006 83.9162C40.576 84.4265 39.1686 84.689 37.7487 84.6907H37.7827ZM30.6837 79.6697C30.1937 79.4408 29.7206 79.1774 29.268 78.8816C28.7611 78.1072 28.3497 77.2746 28.0428 76.4017C27.7707 75.5456 27.6172 74.6564 27.5868 73.7587C27.7644 73.2526 27.9924 72.7655 28.2674 72.3047C28.6399 71.7325 29.0992 71.2213 29.6287 70.7896L33.9848 72.1485C34.0424 72.8899 34.2122 73.6184 34.4885 74.3091C34.682 75.0269 34.9777 75.7133 35.3665 76.3473L32.8209 80.1521C32.1095 80.0733 31.4101 79.9091 30.7381 79.663L30.6837 79.6697ZM26.5454 75.4845C26.3854 74.7203 26.3056 73.9415 26.3072 73.1608C26.3072 72.8619 26.3072 72.5697 26.3072 72.2708C26.3668 72.5964 26.502 72.9035 26.702 73.1676C26.8547 73.3748 27.0305 73.564 27.2261 73.7315C27.2591 74.655 27.4194 75.5695 27.7025 76.4493C28.0216 77.3699 28.4561 78.2465 28.9957 79.0583C28.9442 79.2996 28.9169 79.5454 28.914 79.792C28.9026 80.1123 28.9655 80.4309 29.0978 80.7229C27.8077 79.2263 26.9283 77.4215 26.5454 75.4845ZM28.0428 66.6927L28.2266 66.815C29.8305 64.3694 32.3128 62.6307 35.1623 61.9571C34.855 62.1106 34.5959 62.3457 34.4136 62.6365C34.2585 62.8461 34.1304 63.0744 34.0324 63.3159C33.1885 63.6412 32.3919 64.0777 31.6638 64.6136C30.9031 65.1953 30.2173 65.8685 29.6219 66.6179C29.3777 66.6405 29.1361 66.686 28.9004 66.7538C28.5655 66.8426 28.2602 67.0185 28.0156 67.2634C27.9475 67.3381 27.8795 67.4197 27.8182 67.5012C27.9543 67.2702 28.0905 67.0392 28.2402 66.8218L28.0428 66.6927ZM37.6466 64.6136L37.5649 69.2405C36.9249 69.5442 36.3219 69.9203 35.7681 70.3616C35.1653 70.7612 34.6124 71.231 34.1209 71.7612L29.7376 70.4907C29.5873 69.8223 29.5346 69.1358 29.5811 68.4524C29.6585 67.8841 29.7814 67.3229 29.9486 66.7742C30.5174 66.0739 31.1661 65.4423 31.8816 64.8922C32.607 64.3664 33.4018 63.9434 34.2434 63.6353C34.7656 63.6298 35.2866 63.6868 35.7953 63.8051C36.4473 63.9868 37.0705 64.2589 37.6466 64.6136ZM39.8927 63.8119C40.4057 63.6904 40.931 63.6289 41.4582 63.6285C42.3178 63.9612 43.1338 64.3969 43.8881 64.9262C44.6037 65.459 45.2447 66.0851 45.7938 66.7878C45.9303 67.3301 46.0393 67.8788 46.1206 68.432C46.1739 69.1151 46.1234 69.8023 45.9708 70.4703L41.71 71.8767C41.223 71.2892 40.6437 70.7844 39.9948 70.382C39.4152 69.9033 38.7686 69.5119 38.0754 69.2201L37.9937 64.6136C38.5841 64.2537 39.2238 63.9814 39.8927 63.8051V63.8119ZM44.1671 63.5877C45.6504 64.5699 46.8834 65.8844 47.7677 67.4265C47.7403 67.3886 47.7107 67.3523 47.6792 67.3178C47.4346 67.0728 47.1293 66.897 46.7944 66.8082C46.5725 66.7408 46.3445 66.6953 46.1137 66.6723C45.533 65.9098 44.8453 65.2347 44.0718 64.668C43.3026 64.1152 42.4682 63.6588 41.5875 63.3091C41.487 63.0688 41.3591 62.8408 41.2063 62.6297C41.0199 62.3473 40.7677 62.1141 40.4713 61.9503C41.7882 62.2598 43.0396 62.8004 44.1671 63.5469V63.5877ZM59.0254 62.1881L58.515 62.1201C57.1375 66.1955 55.3113 70.1058 53.0699 73.7791V61.4339L47.6248 60.7545L46.2635 58.4105L45.9708 60.6797L42.8807 60.5371V62.3307C41.311 61.5958 39.5982 61.2154 37.8644 61.2165C36.0935 61.2171 34.345 61.6117 32.746 62.3715V60.5371L27.4098 60.802L25.8648 59.4975C25.7559 61.1485 25.4972 64.0973 25.4972 64.0973L22.6113 64.3147V73.8267C20.8236 70.9137 19.3019 67.8462 18.0647 64.6612L17.5338 64.702C18.8254 68.023 20.4203 71.2185 22.2982 74.2479C25.9267 80.2265 30.2692 85.7431 35.2303 90.6765L35.911 90.6221C34.8492 89.5984 33.8146 88.534 32.8073 87.4288V84.0317C34.3806 84.7709 36.0983 85.1537 37.8372 85.1527C39.6078 85.1494 41.3557 84.7549 42.9556 83.9977V87.4288C41.9482 88.5295 40.9114 89.5962 39.8451 90.6289L40.5257 90.6833C45.4873 85.7479 49.8298 80.229 53.4578 74.2479C55.7904 70.4678 57.6856 66.4356 59.1071 62.2288L59.0254 62.1881ZM28.2334 31.8992C28.2334 31.8992 28.6282 30.0647 29.091 27.8974C29.1386 27.6867 29.1795 27.4761 29.2271 27.2587C27.7297 28.0129 26.3004 28.7534 25.1433 29.3445C20.8485 31.5799 16.4107 33.8831 12.0478 35.4594C12.0478 35.9146 12.0887 36.3562 12.1159 36.8182L12.6128 36.7027L12.5719 35.8263C15.9895 34.5146 19.326 33.0014 22.5637 31.2945V34.4131L24.2517 34.019L24.8438 35.7787L27.8182 33.4755L32.7188 33.061V29.8677L37.8032 26.8714L42.8807 29.8201V33.0202L45.2357 33.1289C45.2357 33.1289 45.3991 35.636 45.5284 37.321L47.1347 33.2037L53.0358 34.2364V31.2469C56.2723 32.9564 59.6089 34.4697 63.0276 35.7787L62.9663 36.9609L63.4632 37.1104C63.4632 36.5601 63.5245 35.9961 63.5517 35.4322C59.182 33.8831 54.751 31.5866 50.4562 29.3174C49.3264 28.733 47.9038 27.9585 46.3724 27.2383C46.42 27.4557 46.4609 27.6663 46.5085 27.8702C46.9713 30.0375 47.3593 31.872 47.3593 31.872L37.8304 26.2328L28.2334 31.8992ZM75.2791 48.6675C75.1702 49.2314 75.0272 49.8429 73.5707 50.828C73.1646 51.089 72.8319 51.4492 72.6042 51.8744C72.3792 51.5808 72.1211 51.3141 71.835 51.0794C71.6921 50.9571 71.556 50.8688 71.4675 50.7941L71.3654 50.7193C71.3654 50.7193 71.3654 50.6582 71.3654 50.6378C72.0828 50.3296 72.7669 49.9495 73.4073 49.5032C72.7635 49.8991 72.0789 50.2248 71.3654 50.4747C71.3447 50.3749 71.3151 50.2771 71.2769 50.1826L71.4403 49.6458C72.1209 47.3222 72.8628 45.5693 72.8696 45.5217C72.8696 45.5217 72.3047 46.7175 71.6717 48.4432C71.5146 48.0358 71.3186 47.6445 71.0863 47.2746C71.2985 47.7123 71.4738 48.1668 71.6104 48.6335C71.4743 49.0072 71.3382 49.408 71.202 49.8225C71.0747 49.5995 70.8683 49.4322 70.6235 49.3537C70.4738 49.2722 70.4125 49.2789 70.29 48.9392C70.1108 48.4295 69.7363 48.0116 69.2486 47.7774C69.0872 47.7078 68.9182 47.6577 68.7449 47.6279C68.7617 47.3983 68.8004 47.1708 68.8606 46.9485C69.0104 46.5341 69.9293 46.2691 70.2968 46.1468C70.4724 46.1047 70.6371 46.026 70.78 45.9158C70.8847 45.7974 70.9718 45.6647 71.0387 45.5217C71.1204 45.3722 71.202 45.216 71.2429 45.1616C71.2837 45.1073 71.3382 45.0869 71.5083 45.0665C71.7081 45.0544 71.9015 44.9919 72.0705 44.885C72.2395 44.7781 72.3786 44.6301 72.4748 44.455C72.6087 44.2653 72.7846 44.109 72.9888 43.9982C73.193 43.8875 73.4201 43.8252 73.6523 43.8163C73.7534 44.2209 73.806 44.636 73.8089 45.0529C73.809 45.3248 73.7793 45.5959 73.7204 45.8614C73.71 45.9267 73.71 45.9932 73.7204 46.0585C73.7271 46.1886 73.7661 46.3151 73.8338 46.4266C73.9015 46.538 73.9958 46.631 74.1084 46.6971L74.333 46.8466H74.3738C74.3738 46.9281 74.3194 47.098 74.2785 47.2542C74.2193 47.458 74.1828 47.6676 74.1696 47.8793C74.1656 47.9193 74.1696 47.9597 74.1813 47.9982C74.193 48.0367 74.2121 48.0725 74.2377 48.1035C74.3806 48.2462 74.4487 48.219 74.5712 48.2598C74.7482 48.2888 74.9216 48.3367 75.0885 48.4025C75.245 48.4772 75.2859 48.5248 75.2859 48.5995C75.288 48.6153 75.288 48.6313 75.2859 48.6471L75.2791 48.6675ZM73.278 53.8175C73.2757 53.8605 73.2757 53.9036 73.278 53.9466C73.278 54.0961 73.278 54.3067 73.278 54.5445C73.2869 55.0851 73.1922 55.6225 72.9989 56.1276C72.9522 56.2325 72.9267 56.3457 72.9241 56.4605C72.9305 56.5801 72.9685 56.6959 73.0343 56.7962C73.1 56.8964 73.1911 56.9775 73.2984 57.0312C73.3722 57.0603 73.4429 57.0967 73.5094 57.1399V57.1807C73.491 57.3596 73.4427 57.5341 73.3665 57.6971C73.2916 57.8669 73.2167 57.996 73.2167 57.996L73.1078 58.1862L73.2916 58.2949C73.4172 58.3752 73.5356 58.4661 73.6455 58.5667C73.8293 58.723 73.9722 58.9404 73.9586 59.0491C73.8038 59.5159 73.5452 59.9418 73.2022 60.2947C72.8592 60.6477 72.4407 60.9187 71.978 61.0874C71.662 61.2259 71.379 61.4297 71.1476 61.6853C71.0626 61.778 70.983 61.8755 70.9094 61.9775C70.8696 62.0318 70.8332 62.0885 70.8005 62.1473C70.7921 62.1808 70.7921 62.2158 70.8005 62.2492C70.8011 62.3048 70.8177 62.359 70.8481 62.4055C70.9775 62.5264 71.0635 62.6863 71.0931 62.8607C71.099 62.8967 71.099 62.9334 71.0931 62.9694C71.0434 63.1983 70.9218 63.4054 70.746 63.5605C69.3928 64.7872 67.8389 65.7731 66.1517 66.4753L65.6208 66.6927L65.3009 66.815C62.4627 67.9224 60.1553 68.4252 59.2569 70.2597C58.5762 71.8631 57.0039 75.2671 56.1736 77.0539L55.8128 77.9372L55.6495 78.1886V78.2294C55.4044 78.6031 55.1662 78.9767 54.9212 79.3368C54.8021 79.2975 54.6787 79.2724 54.5536 79.2621C54.8531 78.8069 55.1594 78.3517 55.4589 77.9032V77.8693L55.772 77.1898C56.0374 76.6191 56.405 75.831 56.7929 74.9681C57.5825 73.256 58.4877 71.2584 58.971 70.1374C59.3446 69.4255 59.9105 68.8324 60.6045 68.4252C61.3623 66.6995 62.0429 64.908 62.6464 63.0509C62.6427 63.3481 62.6747 63.6446 62.7417 63.9342C62.2244 65.4154 61.6663 66.8557 61.0673 68.2554C61.4506 68.0589 61.8436 67.882 62.2449 67.7254L62.6737 67.5623C62.6737 67.4536 62.6737 67.3721 62.6737 67.3381C62.6706 67.2617 62.6903 67.186 62.7303 67.1207C62.7702 67.0554 62.8287 67.0034 62.8983 66.9712C63.1037 66.8968 63.2965 66.7914 63.47 66.6587C63.7038 66.4485 63.8476 66.1566 63.8716 65.8434C63.8631 65.6252 63.7999 65.4126 63.6878 65.2251C63.3345 64.537 63.1304 63.7823 63.0888 63.0102C63.0799 62.7317 63.1358 62.4549 63.2522 62.2017C63.3039 62.1077 63.3705 62.0228 63.4496 61.9503L64.947 62.1541L66.8732 60.9175C66.7779 61.4407 66.4784 62.9219 65.9747 64.7359C65.5261 64.1024 64.9951 63.5312 64.3957 63.0374C65.0057 63.6081 65.5224 64.2706 65.9271 65.0009C65.791 65.4901 65.6344 65.9997 65.4711 66.516L65.7706 66.3937C65.8114 66.2443 65.859 66.088 65.9067 65.9385C66.4172 65.6124 66.8596 65.3202 67.2067 65.0485C67.6288 64.712 68.0206 64.3391 68.3774 63.9342C68.3774 63.9342 67.9554 64.2943 67.0842 64.9262C66.7779 65.1504 66.4035 65.3814 65.9543 65.6056C66.1721 64.7835 66.3559 64.0021 66.5056 63.3159C66.8059 62.9263 67.1334 62.5585 67.4858 62.2152C67.4858 62.2152 66.9481 62.6569 66.5941 63.0102C66.8187 61.9299 66.9481 61.1282 66.9957 60.8292L68.0983 60.1498C68.1408 60.2466 68.1661 60.3501 68.1732 60.4555C68.1782 60.6124 68.2226 60.7655 68.3022 60.9009C68.3819 61.0362 68.4943 61.1494 68.6292 61.2301C68.7994 61.3456 68.8743 61.3524 68.9559 61.6174C68.9923 61.7667 69.0151 61.9191 69.024 62.0726C69.024 62.1337 69.024 62.2152 69.024 62.3715V62.4191V62.4666C69.0741 62.5656 69.1408 62.6553 69.2214 62.7316C69.566 63.0627 69.8535 63.4484 70.0722 63.8731L70.4125 63.5741C70.2573 63.2884 70.0725 63.0197 69.8612 62.7724C69.7319 62.6229 69.623 62.5142 69.5413 62.4259L69.4528 62.3307C69.4583 62.2448 69.4583 62.1585 69.4528 62.0726C69.4426 61.887 69.4153 61.7028 69.3711 61.5222C69.3364 61.3786 69.2718 61.2439 69.1815 61.1269C69.0912 61.0098 68.9772 60.913 68.847 60.8428L68.7449 60.7681C69.2554 60.7069 69.7114 60.6322 70.1062 60.5574C70.6427 60.4569 71.1724 60.3231 71.6921 60.1566C71.6921 60.1566 71.1408 60.2721 70.113 60.4419C69.6333 60.5166 69.1487 60.5552 68.6633 60.5574C68.6633 60.5167 68.6633 60.4759 68.6633 60.4148C68.6438 60.2456 68.5978 60.0805 68.5271 59.9256L70.0313 58.9608L69.8067 58.2814C71.168 56.6371 72.2298 55.4889 72.2434 55.4821H72.2026C72.2026 55.4821 71.0999 56.5216 69.7319 58.0572L69.0512 55.8354H69.1193L69.5617 55.7471C69.6733 55.7353 69.7817 55.7031 69.8816 55.652H69.9156V55.6112C70.0389 55.3823 70.208 55.1811 70.4125 55.0201C70.5134 54.9249 70.6481 54.8736 70.7868 54.8774H70.957C71.1086 54.8791 71.2584 54.8442 71.3935 54.7756C71.5286 54.7069 71.6451 54.6067 71.7329 54.4834C71.9046 54.2964 72.1158 54.1499 72.3513 54.0547C72.5868 53.9595 72.8406 53.9179 73.0942 53.933C73.1961 53.9249 73.2986 53.9249 73.4005 53.933L73.278 53.8175ZM65.5596 72.2572L64.8789 72.4406L65.7706 69.3696L65.2533 69.5055L65.3758 69.0843C65.5543 69.0452 65.7204 68.9628 65.8594 68.8443C65.9983 68.7258 66.1057 68.5748 66.1721 68.4048L66.7439 68.2554L65.5596 72.2572ZM63.9805 77.3665C63.8848 77.4815 63.8298 77.6248 63.8239 77.7741C63.833 77.8739 63.8618 77.9708 63.9085 78.0594C63.9552 78.148 64.019 78.2266 64.0962 78.2905L64.2187 78.4128C64.0224 78.6345 63.8947 78.9083 63.8512 79.2009C63.8411 79.2342 63.8411 79.2696 63.8512 79.3029C64.0674 79.5392 64.2135 79.8309 64.2732 80.1453C64.2769 80.1747 64.2769 80.2044 64.2732 80.2337C63.8239 81.0354 61.9045 81.8643 61.1763 82.0477C61.0264 82.0784 60.885 82.141 60.7616 82.2313C60.6383 82.3216 60.5359 82.4375 60.4616 82.5709C60.371 82.7854 60.3314 83.018 60.3459 83.2503V83.4066C60.3459 83.7123 60.3459 83.9094 60.1485 84.0317C59.9379 84.1784 59.7091 84.2972 59.4679 84.385L59.427 84.1812C59.3029 83.8039 59.0652 83.4742 58.7464 83.2367C58.4945 83.0057 58.338 82.8427 58.338 82.5573C58.335 82.5121 58.335 82.4667 58.338 82.4214C58.3753 82.1736 58.4761 81.9395 58.6307 81.742L58.7396 81.5857C58.8893 81.3819 59.0459 81.1781 59.1888 80.9743C60.3092 80.7158 61.4464 80.5365 62.592 80.4375V80.3967C61.5132 80.4357 60.4379 80.5424 59.3726 80.7161C59.8898 79.9755 60.3595 79.2417 60.7747 78.5759C61.2568 78.3123 61.7656 78.1005 62.2925 77.944V77.9032C61.8265 78.0039 61.3708 78.1472 60.9312 78.3313C61.7752 76.9249 62.3333 75.8378 62.4763 75.5524C63.3057 75.3743 64.1239 75.1474 64.9266 74.873C64.7614 75.7534 64.441 76.5977 63.9805 77.3665ZM62.4286 75.7019C62.1972 76.1299 61.3941 77.5499 60.2574 79.2417L60.1349 79.4184C59.9923 78.7399 59.7635 78.0823 59.4542 77.4616C59.7143 78.1608 59.8902 78.8884 59.9783 79.629C59.7197 80.0027 59.4474 80.3831 59.1684 80.7636C59.1136 80.4785 58.9871 80.212 58.8008 79.9891C58.6299 79.7857 58.5275 79.5337 58.5082 79.2689C58.5397 79.094 58.5557 78.9166 58.5558 78.7389C58.557 78.217 58.3684 77.7124 58.0249 77.3189L57.95 77.2578C59.3828 76.5839 60.8844 76.0668 62.4286 75.7155V75.7019ZM62.4967 70.5654L62.6192 70.1442C63.014 69.9947 63.2998 69.8248 63.4155 69.4647L63.9873 69.3221L62.803 73.3443L62.1223 73.5277L63.0276 70.4431L62.4967 70.5654ZM57.7322 86.5659C57.6531 86.5753 57.5731 86.5753 57.494 86.5659C57.3925 86.5634 57.2918 86.5474 57.1945 86.5184C57.3232 86.2296 57.3904 85.9172 57.3919 85.6012C57.4153 85.3178 57.349 85.0343 57.2025 84.7906C57.056 84.5468 56.8366 84.355 56.5751 84.2423H56.4186C56.0442 84.2713 55.6889 84.4189 55.4044 84.6635C55.7924 83.6444 56.1191 82.666 56.3778 81.8235C56.74 81.5508 57.1223 81.3055 57.5212 81.0898V81.049C57.1516 81.1985 56.7981 81.3852 56.4662 81.6061C56.9018 80.1793 57.1469 79.2009 57.1469 79.1941C57.1469 79.1941 56.6092 81.0082 55.7856 83.2707C55.5746 83.8211 55.3432 84.4054 55.105 84.9965C54.9979 85.0885 54.8956 85.186 54.7987 85.2886C54.7334 84.2178 54.4872 83.1657 54.0704 82.1768H54.0296C54.3758 83.232 54.555 84.3346 54.5605 85.4449C54.3881 85.4149 54.2236 85.3502 54.0772 85.2546C53.8495 85.1121 53.5899 85.028 53.3217 85.01C53.2018 85.0086 53.0832 85.0341 52.9746 85.0848C52.6689 85.2302 52.4027 85.4469 52.1986 85.7167C52.1342 85.7859 52.066 85.8517 51.9944 85.9137C51.9944 85.5264 51.9264 85.2343 51.8924 85.0304C51.8867 84.9671 51.8867 84.9035 51.8924 84.8402C51.8924 84.5141 52.0625 84.3918 52.3144 84.2015C52.4545 84.1141 52.5846 84.0116 52.7023 83.8958C52.844 83.7499 52.9244 83.5554 52.9269 83.3522C52.9301 83.3206 52.9301 83.2888 52.9269 83.2571C52.8521 82.5777 52.6955 82.0409 52.6955 81.6129C52.6944 81.5006 52.7081 81.3887 52.7363 81.28C52.7772 81.1237 52.9065 81.0354 53.1447 80.9743C53.383 80.9131 53.628 80.9131 53.8254 80.8587C53.8959 80.8341 53.9603 80.7946 54.0143 80.7431C54.0683 80.6915 54.1106 80.629 54.1385 80.5598C54.2269 80.3899 54.295 80.1861 54.3699 80.0298C54.4447 79.8736 54.5264 79.792 54.5605 79.7988H54.4516C54.5877 79.7988 54.7783 79.9143 55.0641 79.9279C55.1874 79.9198 55.3055 79.8755 55.4036 79.8006C55.5017 79.7256 55.5754 79.6234 55.6154 79.5067V79.4659C55.7806 78.839 56.1833 78.3006 56.7385 77.9644C56.9421 77.828 57.156 77.7076 57.3783 77.6043L57.5553 77.5295C57.7271 77.6763 57.863 77.8604 57.9526 78.0676C58.0423 78.2749 58.0833 78.4998 58.0725 78.7253C58.0718 78.8783 58.0559 79.0308 58.0249 79.1806C58.0218 79.2099 58.0218 79.2395 58.0249 79.2689C58.0448 79.6218 58.1758 79.9595 58.3993 80.2337C58.5514 80.404 58.6528 80.6135 58.6919 80.8384C58.698 80.8812 58.698 80.9246 58.6919 80.9675C58.6083 81.1927 58.4862 81.4019 58.3312 81.5857C58.1494 81.8336 58.0261 82.1193 57.9704 82.4214C57.9641 82.4938 57.9641 82.5665 57.9704 82.6388C57.9831 82.8327 58.0392 83.0213 58.1346 83.1906C58.2301 83.36 58.3624 83.5057 58.5218 83.6172C58.7779 83.7969 58.9727 84.0506 59.0799 84.3442C59.1104 84.4826 59.1264 84.6238 59.1275 84.7655C59.123 85.1674 58.9878 85.557 58.7423 85.8756C58.4968 86.1942 58.1543 86.4245 57.7663 86.532L57.7322 86.5659ZM56.8338 87.3609C56.8916 87.4448 56.9224 87.5444 56.9223 87.6462C56.9275 87.7073 56.9275 87.7686 56.9223 87.8297C56.8373 88.0945 56.7034 88.341 56.5275 88.5567V88.5906C56.5223 88.6267 56.5223 88.6633 56.5275 88.6993C56.5275 88.9915 56.7181 89.8272 56.7181 90.3843C56.7241 90.5018 56.7079 90.6193 56.6704 90.7308C56.397 91.068 56.0533 91.3416 55.6631 91.5326C55.2223 91.8135 54.725 91.9944 54.2065 92.0625H54.1453C53.831 92.0463 53.5188 92.1219 53.2468 92.2799C53.0358 92.409 52.8861 92.5653 52.6547 92.7284L52.4913 92.7827C52.2686 92.8367 52.0398 92.8618 51.8107 92.8574H51.6541C51.0342 92.8373 50.4172 92.7646 49.8096 92.64L49.3944 92.5653L49.1766 92.5245L48.9928 92.4838C46.3928 91.9538 42.8195 91.0162 38.9875 90.8599C38.6267 90.8599 38.266 90.8599 37.8984 90.8599C37.5309 90.8599 37.1634 90.8599 36.7958 90.8599C33.6418 91.0902 30.5145 91.5995 27.4507 92.3818L27.0559 92.4634C26.0725 92.7118 25.0672 92.8643 24.0543 92.9186H23.8229C22.7267 92.6373 21.6896 92.1634 20.76 91.519C19.6301 90.5338 15.594 86.0835 14.5254 85.1663L15.1039 85.044C15.8967 84.8998 16.7007 84.8247 17.5065 84.8198C18.1711 84.8187 18.8342 84.8801 19.4872 85.0033C22.6916 85.5634 25.5891 87.2506 27.6549 89.7592L28.5873 91.7907L29.0229 91.6888L30.3298 91.4103C27.0859 87.9436 24.1269 84.2219 21.4815 80.2812C21.2178 79.8193 20.9903 79.3377 20.8008 78.8409C23.7174 83.2992 27.0369 87.4815 30.7177 91.3355C31.5413 91.1725 32.3989 91.0162 33.2973 90.8871L33.9235 90.7988C29.1507 85.9625 24.9487 80.5963 21.3998 74.805C18.9769 70.8694 17.0173 66.6676 15.5599 62.2832L15.0563 62.3919L13.9808 62.5753L13.8651 61.76L16.1044 61.264L18.4935 63.8663L24.558 63.3227L25.1365 57.8397L27.7433 60.0071L34.5974 59.5655L38.4702 55.7811L38.5995 59.5383L45.2425 59.6198L45.7666 56.1819L48.3258 59.8576L62.9391 61.8959L62.871 62.0114C62.7463 62.2255 62.661 62.4603 62.6192 62.7044L60.5773 62.4259L60.06 62.3579C58.6039 66.7168 56.6489 70.8935 54.2337 74.805C50.7011 80.6132 46.5127 85.9977 41.7509 90.8531L42.3839 90.9415C43.2823 91.0705 44.1603 91.2268 44.9839 91.3899C47.5876 88.6419 50.0069 85.7253 52.2259 82.6592C52.2259 82.8155 52.2803 82.9786 52.3007 83.1416C51.484 84.2627 50.6536 85.343 49.8096 86.3961C49.7394 86.4656 49.6777 86.5431 49.6258 86.6271C48.8499 87.5783 48.0672 88.5068 47.2776 89.4127L47.1551 89.535V89.5826C46.5834 90.2213 46.0116 90.8531 45.4263 91.4714L46.4949 91.6956L46.9305 91.7907C46.9461 91.0853 47.1531 90.3973 47.5295 89.8C47.5796 89.7383 47.6447 89.6904 47.7185 89.6607C47.7923 89.631 47.8725 89.6205 47.9515 89.6302C48.1625 89.6302 48.4143 89.6913 48.6321 89.6913C48.753 89.7032 48.8747 89.6768 48.9798 89.6159C49.0848 89.5549 49.168 89.4624 49.2174 89.3516C49.4046 88.5861 49.6318 87.8309 49.8981 87.0891C50.1499 86.5456 50.3813 86.5048 50.7217 86.4844C50.9327 86.4844 51.1845 86.532 51.4363 86.5388H51.6269C51.942 86.4846 52.2231 86.3089 52.4096 86.0496C52.5763 85.8304 52.7903 85.6515 53.0358 85.5264C53.0922 85.5174 53.1496 85.5174 53.206 85.5264C53.4005 85.5482 53.5871 85.6157 53.7505 85.7234C53.9566 85.8539 54.189 85.9374 54.4311 85.968C54.5198 85.9673 54.6073 85.9482 54.6881 85.912C54.769 85.8757 54.8414 85.8231 54.9008 85.7574C55.6767 84.9625 56.1531 84.7383 56.4118 84.7451H56.4935C56.6109 84.7945 56.7072 84.8834 56.7657 84.9965C56.8879 85.202 56.9514 85.4369 56.9495 85.6759C56.9471 85.946 56.8868 86.2124 56.7725 86.4572C56.6945 86.6139 56.6504 86.7852 56.6432 86.96C56.6467 87.1295 56.6987 87.2945 56.7929 87.4356L56.8338 87.3609ZM42.2001 94.9297L42.6561 97.2194L41.9755 97.131L41.5399 94.9976L41.2336 97.0359L40.5529 96.9544L41.1587 92.939L41.8393 93.0205L41.5671 94.8278L42.6493 93.1496L43.2755 93.2311L42.2001 94.9297ZM39.2665 94.1076V95.3577C39.2665 96.0372 38.8377 96.1934 38.1367 96.1934V96.7913H37.456V96.1934C36.7414 96.1934 36.3194 96.0168 36.3194 95.3577V94.1008C36.3194 93.564 36.7005 93.3127 37.456 93.3127V92.7351H38.1367V93.3127C38.8786 93.3127 39.2733 93.564 39.2733 94.1076H39.2665ZM37.7964 102.995C36.1356 101.731 34.5089 100.399 32.9162 98.9791C33.311 98.9044 33.7397 98.8296 34.2094 98.7617C35.3801 99.774 36.5712 100.752 37.7964 101.704C39.0215 100.757 40.2149 99.7785 41.3765 98.7685C41.8303 98.8364 42.2591 98.9111 42.6629 98.9927C41.077 100.406 39.4571 101.71 37.7964 102.995ZM33.6785 97.1582L33.0387 97.2465L32.3581 93.2311L34.3387 92.9526L34.9853 96.968L34.3387 97.0563L33.7738 93.5708L33.0931 93.666L33.6785 97.1582ZM10.4483 78.3177C11.9734 78.3375 13.4914 78.5266 14.9746 78.8816C15.6108 79.0372 16.2379 79.2278 16.8531 79.4523C16.8531 79.4523 16.8531 79.5271 16.8191 79.5678C16.6497 80.2063 16.5403 80.8591 16.4924 81.5178C14.5185 80.2948 12.9463 79.5339 12.9395 79.5339C12.9395 79.5339 14.6751 80.5326 16.4856 81.776C16.4856 81.9322 16.4856 82.0953 16.4856 82.2584C16.4856 82.4214 16.4856 82.469 16.4856 82.5777C15.9901 82.5248 15.4904 82.5248 14.995 82.5777C15.4946 82.5795 15.9932 82.6227 16.4856 82.7068C16.5111 83.2694 16.5862 83.8287 16.7102 84.3782C16.2747 84.4033 15.8408 84.4509 15.4102 84.5209C13.5861 82.0681 11.2447 79.2213 10.4347 78.243L10.4483 78.3177ZM9.85618 74.4585C10.7614 74.7167 11.7892 74.8662 12.9871 75.138H13.0756C12.9183 75.8475 12.8384 76.5719 12.8374 77.2985C12.8374 77.516 12.8374 77.7334 12.8374 77.978C12.3473 77.9168 11.8981 77.8761 11.5101 77.8489L11.3672 77.5228C10.9395 76.4878 10.4391 75.4843 9.86979 74.5197L9.85618 74.4585ZM8.79439 69.159L8.68548 68.7378C9.03261 68.7378 9.25041 68.6562 9.15512 68.2825L9.69963 68.3573L10.7206 72.4338L10.04 72.3455L9.25722 69.2134L8.79439 69.159ZM13.5112 75.335C14.1501 75.56 14.7693 75.8372 15.3625 76.1639C15.3625 76.9113 15.417 77.7334 15.4851 78.5827L15.1039 78.4808C14.4777 78.3313 13.8787 78.2158 13.3138 78.1274C13.3138 77.8896 13.3138 77.6451 13.3138 77.4073C13.318 76.7219 13.3933 76.0388 13.5384 75.369L13.5112 75.335ZM13.4636 72.7668L13.2526 71.9447C13.1913 72.0534 13.1369 72.1145 12.8306 72.0737C12.6355 72.0539 12.4519 71.9718 12.3073 71.8396C12.1626 71.7074 12.0645 71.5322 12.0274 71.34L11.6939 69.9811C11.585 69.5599 11.619 69.193 12.3745 69.3017C12.6203 69.313 12.8556 69.404 13.0448 69.561C13.234 69.7179 13.3667 69.9322 13.4227 70.1713L14.1034 72.7803C14.2259 73.2831 14.0557 73.5685 13.4227 73.4598C13.1618 73.446 12.9134 73.3435 12.7189 73.1692C12.5245 72.9949 12.3958 72.7593 12.3541 72.5018V72.4338L12.9735 72.5222L13.0143 72.6648C13.0484 72.8279 13.1096 72.9842 13.3342 73.0114C13.5588 73.0385 13.5452 72.8891 13.5044 72.7328L13.4636 72.7668ZM15.7913 78.603C15.7233 77.9236 15.6688 77.3257 15.6348 76.7278C15.6348 76.5512 15.6348 76.3813 15.6008 76.2115C16.1385 76.4968 16.6762 76.8094 17.1662 77.1083L17.6495 77.414C17.4163 77.9316 17.214 78.4625 17.0437 79.0039C16.6217 78.8476 16.2065 78.7185 15.7913 78.603ZM22.2029 84.0385C21.8793 84.326 21.6036 84.6632 21.3862 85.0372C20.8757 84.881 20.3652 84.7519 19.8684 84.6432C19.8003 84.419 19.739 84.1879 19.6846 83.9637C19.8284 83.1304 20.1311 82.3324 20.5762 81.6129H20.5354C20.1042 82.2308 19.7883 82.9213 19.6029 83.6512C19.1816 81.8312 18.976 79.9681 18.9903 78.1003C18.8511 80.2818 19.0578 82.4716 19.6029 84.5888C18.9428 84.4681 18.2729 84.4089 17.6018 84.4122H17.2411C17.0776 83.7128 16.9954 82.9969 16.9961 82.2787C16.9989 81.3982 17.1133 80.5216 17.3364 79.6697C17.6543 78.4877 18.1112 77.3474 18.6977 76.2726C18.9223 75.8582 19.1333 75.5184 19.283 75.2806C19.9636 77.8489 20.549 79.6969 21.3249 80.852C22.1009 82.007 22.8223 82.7679 23.4485 84.3918C23.7047 84.9612 23.9163 85.5495 24.0815 86.1515C23.2799 85.7074 22.4364 85.3433 21.5631 85.0644C21.7348 84.689 21.9645 84.3428 22.2438 84.0385H22.2029ZM5.23465 63.9818C4.55401 62.6229 3.92102 61.4475 3.59432 60.8564C3.83254 60.9107 4.15924 60.9923 4.54721 61.101C5.68963 61.4263 6.8011 61.8514 7.86872 62.3715C8.94661 62.9028 9.96047 63.5547 10.8907 64.3147C10.6798 64.634 10.4756 64.9941 10.2782 65.327C10.1897 65.4833 10.108 65.6396 10.0263 65.8094C8.81396 64.7059 7.50918 63.7081 6.12629 62.8267C6.12629 62.8267 7.61688 63.975 9.42738 65.5988L9.93105 66.054C9.86299 66.1944 9.80173 66.3371 9.74728 66.4821L10.1557 66.6383C10.3139 66.2494 10.4957 65.8705 10.7002 65.5037C11.2572 64.4971 11.9437 63.5675 12.7421 62.7384C13.028 62.4327 13.2798 62.2017 13.4636 62.059C13.684 64.2745 14.1194 66.4635 14.7636 68.5951C14.9912 68.7436 15.2053 68.9118 15.4034 69.0979C15.7362 69.4106 16.0125 69.7784 16.2201 70.1849C17.1526 72.3523 18.2621 74.7915 18.6296 75.5117C18.6435 75.5305 18.6549 75.5511 18.6636 75.5728L18.4458 75.9329C18.4446 75.9148 18.4446 75.8966 18.4458 75.8785C18.0919 75.1516 16.8872 72.4814 15.9479 70.3208C14.961 68.2825 12.2793 67.8953 9.05303 66.5296C7.52159 65.8502 5.84723 64.7563 5.30272 63.941L5.23465 63.9818ZM1.32099 51.5686C1.5524 51.6434 1.8723 51.7521 2.24665 51.8947C3.35973 52.3116 4.43082 52.8325 5.44565 53.4506C6.16439 53.8948 6.84712 54.3946 7.48756 54.9454L6.80692 57.4185C5.7119 56.0998 4.54393 54.8431 3.30845 53.6545C3.30845 53.6545 4.55401 54.9658 6.031 56.7798L5.88126 56.7051C5.36326 56.4479 4.81423 56.2584 4.24773 56.1412C4.77069 56.2996 5.27679 56.509 5.75874 56.7662C5.96974 56.8749 6.13309 56.9837 6.31687 57.0992C6.50064 57.2147 6.60954 57.4593 6.75928 57.6495L6.45299 58.7094L7.14724 59.1782C6.79423 59.8275 6.50694 60.5103 6.28964 61.2165C5.62106 60.965 4.93944 60.7496 4.24773 60.571C3.6151 57.4697 2.63328 54.4497 1.32099 51.5686ZM2.22623 46.6699C2.22714 45.7535 2.34145 44.8407 2.56655 43.9522C2.84315 42.8423 3.26419 41.7733 3.81893 40.7725C4.0095 40.426 4.17966 40.1474 4.31579 39.9504C4.9787 42.1082 5.95564 44.157 7.21531 46.0313C6.69802 46.5137 6.16713 47.0504 5.67707 47.6076C5.35024 47.9574 5.04562 48.3273 4.76501 48.715C4.63569 48.1443 4.48595 47.5804 4.39066 47.0368C4.4736 46.2602 4.65662 45.4974 4.93517 44.7675C4.68268 45.2871 4.47766 45.8283 4.3226 46.3846C4.14407 45.1597 4.03499 43.9257 3.99589 42.6885H3.95505C3.85689 44.8337 4.06544 46.9819 4.57443 49.0683C4.0905 49.8018 3.6974 50.5912 3.40374 51.4191C2.61075 49.9596 2.20097 48.3234 2.21262 46.6632L2.22623 46.6699ZM21.672 22.6522C23.8092 21.5379 25.9737 20.4101 28.0496 19.4249L28.8732 20.1451C26.6952 21.171 24.4014 22.3668 22.1349 23.5422C16.3358 26.5657 10.3667 29.6707 5.36397 30.5132C5.4275 34.943 5.65438 39.1351 6.04461 43.0894C5.86764 42.7225 5.70429 42.3624 5.56136 42.0227C5.23465 41.2549 4.99643 40.5959 4.84669 40.1271C4.84669 40.0183 4.77862 39.9232 4.75821 39.8349C4.51318 36.5555 4.37932 33.1584 4.35663 29.6435C9.33209 29.0796 15.6008 25.8251 21.6857 22.6522H21.672ZM21.3317 26.919L23.3736 25.8591C25.3203 24.8467 27.3622 23.78 29.3156 22.8356L29.724 22.6454C29.724 22.7813 29.6627 22.9307 29.6287 23.0802L29.2271 23.2705C27.3486 24.1877 25.4019 25.2 23.537 26.1716L21.4951 27.2315C21.4503 27.1226 21.3956 27.018 21.3317 26.919ZM19.0924 27.7207C19.0924 27.5111 19.1547 27.3061 19.2714 27.1318C19.388 26.9575 19.5539 26.8217 19.7479 26.7415C19.9419 26.6613 20.1554 26.6403 20.3614 26.6812C20.5673 26.7221 20.7565 26.823 20.905 26.9712C21.0535 27.1195 21.1546 27.3083 21.1956 27.5139C21.2366 27.7195 21.2156 27.9326 21.1352 28.1263C21.0548 28.32 20.9187 28.4855 20.7441 28.602C20.5695 28.7184 20.3642 28.7806 20.1542 28.7806C20.0148 28.7806 19.8767 28.7532 19.7479 28.6999C19.6191 28.6467 19.502 28.5686 19.4034 28.4702C19.3048 28.3717 19.2266 28.2549 19.1733 28.1263C19.1199 27.9977 19.0924 27.8599 19.0924 27.7207ZM9.62476 32.1234C12.7839 31.0429 15.8576 29.7279 18.8202 28.1895C18.8587 28.3 18.9113 28.405 18.9767 28.502C16.0122 30.0413 12.9362 31.3563 9.7745 32.4359C9.73707 32.3262 9.68681 32.2213 9.62476 32.1234ZM9.10748 44.4007L8.79439 44.652C8.42004 41.35 8.1682 37.8578 8.04568 34.2296C8.16029 34.2652 8.27959 34.2836 8.39962 34.284C8.53121 37.8215 8.75809 41.1938 9.08025 44.4007H9.10748ZM8.39962 33.9307C8.18961 33.9307 7.98433 33.8685 7.80972 33.752C7.6351 33.6356 7.49901 33.47 7.41865 33.2764C7.33828 33.0827 7.31725 32.8696 7.35822 32.664C7.39919 32.4584 7.50032 32.2695 7.64881 32.1213C7.79731 31.9731 7.9865 31.8721 8.19247 31.8312C8.39844 31.7903 8.61193 31.8113 8.80595 31.8915C8.99997 31.9718 9.1658 32.1076 9.28247 32.2819C9.39914 32.4562 9.46141 32.6611 9.46141 32.8708C9.46141 33.01 9.43395 33.1478 9.38059 33.2764C9.32723 33.405 9.24902 33.5218 9.15042 33.6202C9.05182 33.7187 8.93477 33.7967 8.80595 33.85C8.67712 33.9033 8.53905 33.9307 8.39962 33.9307ZM8.37239 47.1999C7.53046 48.7752 6.8465 50.4297 6.33048 52.1393C6.1642 51.4053 5.85172 50.7121 5.41162 50.1011C5.847 50.8942 6.11349 51.7685 6.19435 52.6693C6.1399 52.8867 6.09226 53.1041 6.04461 53.3487C5.91529 53.2672 5.78597 53.1789 5.65665 53.1041C5.02453 52.7109 4.36746 52.3591 3.6896 52.051C4.14166 50.5145 4.93236 49.0984 6.00377 47.9065C6.98947 46.7066 8.16141 45.6721 9.47502 44.8423C9.47502 44.8423 9.36612 45.5217 9.31848 46.2419C9.27083 46.9621 9.2368 47.9337 9.21638 48.9053L7.61008 54.5105C7.19199 54.1596 6.75578 53.8308 6.30325 53.5254C6.72206 51.3462 7.42453 49.2311 8.39281 47.2339L8.37239 47.1999ZM8.93732 62.4463C8.64465 62.2764 8.35197 62.1201 8.0593 61.9707C7.58966 61.7397 7.13363 61.5426 6.69802 61.366C6.90797 60.6603 7.18844 59.9774 7.53521 59.3277L9.57712 60.374C9.33053 61.0419 9.11924 61.7223 8.94413 62.4123L8.93732 62.4463ZM11.129 61.9775C10.7818 62.357 10.4568 62.7563 10.1557 63.1732C9.82896 62.9422 9.47502 62.7384 9.16874 62.5414C9.3457 61.7872 9.54989 61.0874 9.75409 60.4623L12.7285 61.9978H12.817C12.1986 62.5908 11.6359 63.239 11.1358 63.9342C10.8567 63.6964 10.564 63.479 10.2782 63.2548C10.8499 62.4259 11.1426 61.991 11.1426 61.9842L11.129 61.9775ZM37.3335 41.2277L32.6712 41.3228C32.6712 41.1122 32.6712 37.5452 32.6712 37.5452L29.125 37.7762L27.7229 51.3648L32.2083 51.0251L32.5895 45.5897C32.7528 45.5897 37.1497 45.3858 37.3539 45.3858C37.3539 45.6032 37.3131 51.5007 37.3131 51.623L33.2293 54.8774C30.5067 54.9454 28.1449 55.19 25.5108 55.3938L22.026 52.4111C22.026 52.4111 21.1003 59.4568 21.1003 59.6266L16.2678 60.1294C16.3086 59.8644 16.7919 56.3246 16.7919 56.3246L7.26295 57.9552L13.0552 37.8714L16.4584 37.1104L12.395 53.0634L15.417 52.6421L19.1129 36.4513L22.9448 35.6428L20.1678 51.9015L22.3323 51.7453L24.5035 37.8578C24.5648 37.8102 28.036 34.8207 28.0837 34.7868C30.1256 34.549 31.9769 34.3791 34.0665 34.2908L37.3471 36.825C37.3471 36.9337 37.3471 41.0511 37.3471 41.2617L37.3335 41.2277ZM22.305 13.6905L33.3518 12.4675L37.8372 2.20819C37.8372 2.20819 41.921 11.5299 42.3294 12.4675L53.3489 13.6905L45.0792 20.974C45.1677 21.3884 45.5692 23.284 46.0185 25.3835C46.0593 25.5873 46.1069 25.7979 46.1546 26.0085C47.8358 26.8374 49.5033 27.7071 50.919 28.4545C55.4589 30.8189 60.1077 33.2105 64.5931 34.7392C64.5318 36.2951 64.4501 37.8238 64.3412 39.3117L64.7496 40.6027L65.7774 43.8707C65.7774 43.9386 65.8182 44.0134 65.8454 44.0881L66.281 45.447C66.1001 45.6115 65.9502 45.8071 65.8386 46.0245L63.1909 37.6336L55.7039 35.4662L52.8316 37.7898L51.1641 41.0171L53.206 34.943L47.6452 33.9714C47.6452 33.9714 45.9368 38.1159 44.9226 40.5755C44.7389 37.9801 44.4462 33.7812 44.4462 33.7812L38.5178 33.5298L38.5655 36.9269L34.2366 33.5842L27.9952 34.1005L24.5035 36.9813L23.7276 34.7732L18.5956 35.9418L17.9694 38.6595L17.1594 36.3494L12.5039 37.3822L9.84937 46.6564L9.72005 47.1048C9.72005 46.7107 9.76089 46.3302 9.78812 45.9701C9.78812 45.4266 9.88341 44.9306 9.93786 44.5365C9.99231 44.1425 10.0331 43.9047 10.0536 43.7688C10.3054 42.8923 10.6049 41.8664 10.8976 40.8676C11.0337 40.392 11.1698 39.93 11.2991 39.5088C11.1812 37.9597 11.0904 36.3743 11.0269 34.7528C15.5123 33.2444 20.161 30.8325 24.7009 28.4681C26.137 27.7207 27.8114 26.8442 29.4994 26.0153C29.5402 25.8047 29.5879 25.5941 29.6287 25.3903C30.0779 23.2908 30.4863 21.402 30.5748 20.9876L22.305 13.6905ZM54.3563 26.9054C54.2872 27.0013 54.2322 27.1065 54.1929 27.2179L52.151 26.1716C50.2724 25.1932 48.2986 24.1333 46.4064 23.2501L46.0048 23.053C46.0048 22.9036 45.9368 22.7609 45.9095 22.6182L46.3111 22.8152C48.285 23.7596 50.3473 24.8535 52.3144 25.8591L54.3563 26.9054ZM56.5751 27.7207C56.5751 27.9303 56.5129 28.1353 56.3962 28.3096C56.2795 28.4839 56.1137 28.6197 55.9197 28.6999C55.7257 28.7801 55.5122 28.8011 55.3062 28.7602C55.1002 28.7193 54.911 28.6184 54.7625 28.4702C54.6141 28.3219 54.5129 28.1331 54.472 27.9275C54.431 27.7219 54.452 27.5088 54.5324 27.3151C54.6127 27.1214 54.7488 26.9559 54.9234 26.8394C55.0981 26.723 55.3033 26.6608 55.5133 26.6608C55.6528 26.6608 55.7909 26.6882 55.9197 26.7415C56.0485 26.7947 56.1656 26.8728 56.2641 26.9712C56.3627 27.0697 56.441 27.1865 56.4943 27.3151C56.5477 27.4437 56.5751 27.5815 56.5751 27.7207ZM66.0224 32.1098C65.9581 32.2075 65.9056 32.3124 65.8658 32.4223C62.7161 31.3402 59.6516 30.0252 56.6977 28.4885C56.7607 28.3911 56.811 28.286 56.8474 28.1759C59.8015 29.7172 62.8687 31.0323 66.0224 32.1098ZM53.9683 22.6522C60.0532 25.8251 66.3219 29.0796 71.2973 29.6435C71.2701 32.565 71.1748 35.4028 71.0115 38.1567C70.8697 38.0195 70.7093 37.9029 70.535 37.8102C70.3782 37.7192 70.2115 37.6463 70.0382 37.5928C70.1675 35.3031 70.256 32.9455 70.2832 30.5132C65.2669 29.6707 59.2909 26.5657 53.4987 23.5422C51.2389 22.3668 48.9452 21.1778 46.774 20.1451L47.5975 19.4181C49.6394 20.4101 51.8311 21.5311 53.9683 22.6454V22.6522ZM67.6559 34.1956C67.5742 36.6212 67.4313 38.9516 67.2407 41.2277C67.1239 41.2458 67.0097 41.2778 66.9004 41.3228C67.091 39.0309 67.2317 36.6642 67.3224 34.2228C67.4424 34.2162 67.5611 34.1957 67.6763 34.1617L67.6559 34.1956ZM67.2543 33.8695C67.0443 33.8695 66.8391 33.8074 66.6644 33.6909C66.4898 33.5744 66.3537 33.4089 66.2734 33.2152C66.193 33.0216 66.172 32.8084 66.213 32.6028C66.2539 32.3972 66.355 32.2084 66.5035 32.0601C66.652 31.9119 66.8412 31.811 67.0472 31.7701C67.2532 31.7292 67.4667 31.7502 67.6607 31.8304C67.8547 31.9106 68.0205 32.0465 68.1372 32.2208C68.2539 32.3951 68.3161 32.6 68.3161 32.8096C68.3161 32.9488 68.2887 33.0866 68.2353 33.2152C68.182 33.3438 68.1037 33.4607 68.0051 33.5591C67.9065 33.6575 67.7895 33.7356 67.6607 33.7888C67.5319 33.8421 67.3938 33.8695 67.2543 33.8695ZM66.703 48.7082C66.8601 48.8436 67.0037 48.9937 67.1318 49.1566C67.2547 49.409 67.322 49.6847 67.3292 49.9652C67.3292 49.9652 67.3292 49.9652 67.3292 50.0127C67.3292 50.1486 67.2952 50.1554 67.2952 50.1622C67.2952 50.169 67.2952 50.2369 67.2203 50.3117L66.703 48.7082ZM61.7344 56.6711C58.3312 56.1344 54.6898 55.7131 50.9463 55.421L44.8205 44.6996C44.8205 44.6996 45.4331 54.8503 45.4467 55.0881C43.4933 54.9997 41.499 54.9522 39.5048 54.9318C39.5048 54.728 39.2053 34.4538 39.1985 34.2296C40.7912 34.2296 42.3907 34.3247 43.9629 34.4402C43.9629 34.6237 44.5823 43.2728 44.5823 43.2728L48.0263 34.7188L52.4096 35.5002L49.551 43.9251L56.4118 55.0473L56.5888 54.9658C56.5888 54.9658 53.5191 38.245 53.4987 38.1159L55.8128 36.2136L62.7689 38.1159C62.7689 38.1159 68.8947 57.6359 69.0104 57.996L65.0423 57.0788L63.8988 52.8935L60.8223 52.4587C60.8223 52.4587 61.6731 56.3586 61.7344 56.6507V56.6711ZM70.4193 52.5742C69.9982 53.0055 69.6006 53.4591 69.2282 53.933C69.2788 52.5193 69.2492 51.1038 69.1397 49.6934C69.1875 51.1524 69.158 52.613 69.0512 54.0689C69.0172 54.4562 68.9832 54.8706 68.9423 55.2851H68.8606L67.4994 50.9232L67.5402 50.8145C67.6573 50.5622 67.7375 50.2945 67.7784 50.0195C67.8539 49.4893 68.0221 48.9765 68.2753 48.5044C68.3546 48.3343 68.4432 48.1687 68.5407 48.0084L68.5816 47.9405C68.8697 48.0024 69.1382 48.1339 69.3637 48.3234C69.5891 48.5129 69.7646 48.7547 69.8748 49.0276C69.906 49.1803 69.9754 49.3227 70.0765 49.4415C70.1777 49.5603 70.3073 49.6517 70.4533 49.707C70.6439 49.7953 70.712 49.7885 70.8481 50.0399C70.9527 50.2685 71.0106 50.5157 71.0183 50.7669V50.8145V50.8552C71.0836 50.9455 71.1642 51.0236 71.2565 51.0862C71.7253 51.4391 72.1207 51.8799 72.4204 52.3839C72.4204 52.6489 72.468 52.9003 72.468 53.1517C72.468 53.2536 72.468 53.3487 72.468 53.4438C72.0261 53.5274 71.6241 53.7543 71.3246 54.0893C71.0863 54.3475 71.0251 54.3271 70.8821 54.3407H70.712C70.4616 54.3365 70.2187 54.4262 70.0313 54.5921C69.8189 54.7649 69.6391 54.9743 69.5005 55.2104L69.1669 55.2715C69.1942 54.9273 69.2146 54.5875 69.2282 54.2524C69.6071 53.683 70.0161 53.1342 70.4533 52.6081L70.4193 52.5742ZM71.6172 39.8349C71.801 39.93 71.8691 39.9232 71.9848 40.1678C72.0858 40.3964 72.1324 40.6452 72.1209 40.8948V40.9492V40.9967C72.1848 41.0972 72.2739 41.1792 72.3795 41.2345C72.856 41.5439 73.258 41.9546 73.557 42.4371C73.557 42.6613 73.557 42.8855 73.557 43.1165C73.557 43.2049 73.557 43.2932 73.557 43.3747C73.274 43.4067 73.0013 43.4998 72.758 43.6476C72.5147 43.7955 72.3066 43.9945 72.1481 44.2308C71.8691 44.6385 71.7261 44.6113 71.4675 44.652C71.3555 44.6474 71.2442 44.6703 71.1432 44.7189C71.0423 44.7675 70.955 44.8402 70.8889 44.9306C70.8055 45.0616 70.7305 45.1978 70.6643 45.3383L70.5554 45.5285L70.5146 45.5829C70.414 45.6534 70.3008 45.7041 70.1811 45.7323C70.0992 45.7655 70.015 45.7928 69.9292 45.8139C70.0245 45.0461 70.0926 44.2987 70.1403 43.6125C70.4874 43.0961 71.5015 41.9955 71.5015 41.9955H71.4675C71.4675 41.9955 70.5895 42.8719 70.1879 43.3543C70.3036 41.35 70.256 39.9028 70.256 39.896H70.2083C70.2083 39.896 70.2083 41.7781 69.9224 44.1968L69.8408 44.8763C69.3623 44.2614 68.7904 43.725 68.146 43.2864C68.8134 43.7949 69.3791 44.4241 69.8135 45.1412C69.8135 45.3858 69.7455 45.6372 69.7046 45.8886C69.2149 46.017 68.7934 46.3284 68.5271 46.7583C68.4584 47.0113 68.4174 47.271 68.4046 47.5328C68.356 47.5331 68.3095 47.5527 68.2753 47.5872C68.2549 47.6063 68.2387 47.6294 68.2277 47.6551C68.1936 47.7163 68.003 48.0152 67.8193 48.4025C67.7376 48.5723 67.6627 48.7558 67.5879 48.9528C67.5761 48.9234 67.5601 48.896 67.5402 48.8713C67.0229 48.1919 66.3083 47.988 66.2198 46.6903C66.2198 46.072 66.5669 46.0109 66.7847 45.6304C66.8591 45.4995 66.9011 45.3528 66.9072 45.2024C66.8869 44.9333 66.7794 44.6781 66.6009 44.4754C66.3522 44.105 66.2152 43.6711 66.2062 43.2252C66.1818 42.8832 66.284 42.544 66.4936 42.2723C66.7031 42.0005 67.0053 41.8149 67.3428 41.7509C67.467 41.7283 67.5772 41.6574 67.6491 41.5539C67.7633 41.2739 67.8999 41.0035 68.0575 40.7453C68.0575 40.691 68.2004 40.6774 68.4318 40.6638C68.568 40.6599 68.6993 40.6122 68.8062 40.5279C68.9403 40.4075 69.0211 40.2389 69.0308 40.0591C69.1078 39.5405 69.2859 39.0419 69.5549 38.5915C69.6463 38.4235 69.7463 38.2602 69.8544 38.1024L69.902 38.0344C70.1808 38.0987 70.4382 38.2339 70.6493 38.4267C70.8604 38.6196 71.0179 38.8636 71.1068 39.1351C71.1347 39.2852 71.1998 39.426 71.2961 39.5446C71.3924 39.6632 71.5168 39.756 71.6581 39.8145L71.6172 39.8349ZM75.6874 47.8997C75.4837 47.7541 75.252 47.6523 75.0068 47.6008L75.0476 47.4105C75.0476 47.3086 75.1021 47.1999 75.1225 47.098C75.1471 46.9999 75.1631 46.8999 75.1702 46.799C75.1695 46.7269 75.1557 46.6555 75.1293 46.5884C75.0602 46.4472 74.9514 46.3292 74.8162 46.2487C74.6869 46.1604 74.5848 46.0992 74.5372 46.0585C74.4895 46.0177 74.5372 46.0585 74.5372 46.0585C74.6183 45.7388 74.6572 45.4098 74.6529 45.0801C74.6452 44.5527 74.5744 44.028 74.4419 43.5174C74.4323 43.4776 74.4186 43.4389 74.401 43.4019C74.401 43.2592 74.401 43.1233 74.401 42.9874C74.401 42.7089 74.401 42.4575 74.401 42.2333V42.1178L74.3466 42.0159C74.0878 41.5525 73.7383 41.1458 73.3188 40.8201L72.9513 40.5483C72.9513 40.4668 72.9513 40.392 72.9513 40.3037C72.9513 40.2154 72.8832 40.0523 72.8083 39.8213V39.7466C72.7362 39.5898 72.6334 39.4489 72.506 39.3323C72.3786 39.2156 72.2292 39.1255 72.0665 39.0671L71.9916 39.0264C72.1822 36.0369 72.2933 32.9274 72.3251 29.6978V28.8757L71.556 28.7874C66.7234 28.2507 60.5228 25.0166 54.54 21.898C52.6274 20.8992 50.6944 19.8597 48.8159 18.9765L55.527 13.0587L42.8807 11.6726L37.8236 0.0679932L32.7528 11.6726L20.2904 13.0315L27.0082 18.9493C25.1229 19.8597 23.1899 20.8721 21.2705 21.8708C15.2809 24.9894 9.08025 28.2235 4.25453 28.7602L3.49222 28.8486V29.6231C3.52852 32.9931 3.65104 36.2294 3.85976 39.3321C2.94033 40.6708 2.27157 42.1648 1.88592 43.7416C1.64872 44.6906 1.52759 45.6647 1.52518 46.6428C1.51144 48.2283 1.85087 49.7971 2.51891 51.2357C2.03455 51.0432 1.53907 50.8798 1.03512 50.7465L0.000549316 50.4815L0.470189 51.4395C0.470189 51.4395 0.606317 51.7045 0.824121 52.2005C1.94661 54.7393 2.81082 57.3842 3.40374 60.0954L3.20635 60.0547L2.1922 59.8576L2.7231 60.7885C2.7231 60.7885 2.9409 61.1689 3.29484 61.8076L3.92783 62.9898L3.85296 63.1053C3.61308 63.5168 3.49728 63.9886 3.51945 64.4642C3.56915 65.5619 3.89448 66.6296 4.46553 67.5691C5.01927 68.6048 5.475 69.6898 5.82681 70.81C6.09047 71.7334 6.55532 72.5872 7.18808 73.3103C7.6784 73.8311 8.27808 74.2371 8.94413 74.4993C9.55289 75.4934 10.1007 76.5235 10.5845 77.5839H9.90383L8.9101 77.6247L9.54989 78.3924C9.54989 78.3924 10.319 79.3097 11.374 80.6142C12.2793 81.7352 13.4159 83.1416 14.4028 84.4733C14.0897 84.5412 13.906 84.5956 13.8924 84.6024L13.0211 84.8606L13.7018 85.4517C13.7018 85.4517 13.9808 85.6827 14.4369 86.0835C15.7981 87.2929 18.9971 90.7648 20.1542 91.8587C20.6859 92.3009 21.2858 92.6542 21.9307 92.905C21.9284 92.9253 21.9284 92.9458 21.9307 92.9661C21.9283 92.9796 21.9283 92.9934 21.9307 93.0069L22.0736 93.1564L22.3391 93.4214C23.0197 94.1416 24.6192 95.5616 26.1779 96.8932C27.5868 98.0958 28.9889 99.081 29.6287 99.5226H29.6695H29.7172C29.9366 99.6134 30.1646 99.6816 30.3978 99.7264H30.5271L30.6565 99.6857L31.1601 99.5226C31.3779 99.4615 31.6706 99.38 32.0245 99.2984C33.6762 100.771 35.3892 102.184 37.1634 103.538L37.6806 103.932L38.2047 103.538C39.9744 102.179 41.6828 100.768 43.3299 99.3052C43.6634 99.3867 43.9357 99.4615 44.1467 99.5226L44.6504 99.6857L44.7797 99.7264H44.909C45.1422 99.6816 45.3703 99.6134 45.5897 99.5226H45.6373H45.6781C46.8731 98.7062 48.0249 97.8286 49.129 96.8932C50.6876 95.5344 52.2599 94.1416 52.9678 93.4214C53.0254 93.3651 53.0779 93.3037 53.1243 93.2379C53.1823 93.1601 53.2198 93.069 53.2332 92.9729L53.3898 92.8574C53.5476 92.7645 53.7319 92.7262 53.9138 92.7487H53.9751C54.6189 92.6829 55.2386 92.4689 55.7856 92.1237C56.0614 91.97 56.3233 91.7927 56.5683 91.5937C56.7888 91.432 56.9703 91.2231 57.0992 90.9822C57.173 90.7824 57.2054 90.5698 57.1945 90.3571C57.1874 90.0066 57.1555 89.6569 57.0992 89.3108C57.0992 89.1002 57.038 88.9032 57.0244 88.7809C57.0859 88.6957 57.1427 88.6072 57.1945 88.5159C57.2626 88.38 57.3034 88.2645 57.3987 88.0267C57.4363 87.9034 57.4547 87.7751 57.4532 87.6462C57.4552 87.5046 57.4297 87.3638 57.3783 87.2318C57.428 87.2385 57.4783 87.2385 57.528 87.2318C57.6131 87.2314 57.6978 87.22 57.7799 87.1978H57.8275C58.2733 87.0409 58.6764 86.7827 59.005 86.4436C59.3665 86.0713 59.6042 85.5968 59.6857 85.0848C59.9531 84.9603 60.2103 84.8149 60.4548 84.6499C60.5801 84.5625 60.6864 84.4506 60.7671 84.321C60.8478 84.1913 60.9013 84.0467 60.9244 83.8958C60.9857 83.5289 60.9244 83.2164 60.9993 83.0465C61.0063 82.9816 61.0324 82.9201 61.0742 82.8699C61.1323 82.8062 61.2082 82.7613 61.292 82.7408C61.9011 82.5339 62.4947 82.2841 63.0684 81.9934C63.7665 81.6911 64.3672 81.202 64.804 80.5802V80.5394V80.4986C64.8371 80.3883 64.8555 80.2741 64.8585 80.1589C64.8408 79.8302 64.7324 79.5128 64.5454 79.2417C64.5122 79.1832 64.4759 79.1264 64.4365 79.0719C64.4804 78.9875 64.5329 78.9078 64.5931 78.8341C64.7009 78.7066 64.761 78.5457 64.7632 78.3788C64.7605 78.2121 64.7004 78.0514 64.5931 77.9236C64.53 77.8487 64.4618 77.7783 64.3889 77.713C64.8047 77.1012 65.1196 76.4268 65.3213 75.7155C65.4166 75.4233 65.4847 75.1583 65.5391 74.9545C66.4497 74.5666 67.2718 73.998 67.9554 73.2831C68.6011 72.5711 69.0883 71.7305 69.3847 70.8168C69.7799 69.693 70.2343 68.5908 70.746 67.5148C71.2799 66.5235 71.5846 65.4254 71.6376 64.3011C71.6426 64.012 71.606 63.7237 71.5287 63.445C71.6195 63.2779 71.6685 63.0915 71.6717 62.9015C71.6654 62.6851 71.602 62.4741 71.4879 62.29C71.6705 62.068 71.9039 61.8932 72.1685 61.7804C72.7248 61.5638 73.2258 61.2265 73.6355 60.7929C74.0451 60.3593 74.3531 59.8403 74.5372 59.2733V59.2258C74.5431 59.1648 74.5431 59.1033 74.5372 59.0423C74.5212 58.8455 74.4638 58.6542 74.3688 58.4809C74.2738 58.3077 74.1433 58.1563 73.9858 58.0368C73.9575 58.0039 73.9255 57.9743 73.8906 57.9484C74.0069 57.7058 74.074 57.4426 74.0879 57.1739C74.0779 56.9723 73.9901 56.7824 73.8429 56.6439C73.7496 56.558 73.6468 56.4828 73.5366 56.4197C73.7699 55.8271 73.8855 55.1948 73.8769 54.5581C73.8769 54.2931 73.8769 54.0621 73.8429 53.8787C73.8089 53.6952 73.8429 53.7224 73.8429 53.6748C73.8429 53.6273 73.8429 53.6748 73.8429 53.6341C73.8462 53.5536 73.8274 53.4737 73.7885 53.4031C73.734 53.2808 73.6591 53.2672 73.6455 53.24C73.6103 53.2122 73.5713 53.1893 73.5298 53.1721H73.4073C73.3441 53.1631 73.2799 53.1631 73.2167 53.1721H73.0738C73.0696 53.0906 73.0696 53.0089 73.0738 52.9275C73.0428 52.7225 73.0428 52.5141 73.0738 52.3092C73.2576 51.4871 74.7482 50.9503 75.4084 49.9991C75.6512 49.6381 75.8094 49.227 75.8712 48.7966C75.8778 48.7424 75.8778 48.6876 75.8712 48.6335C75.8657 48.5013 75.8311 48.3719 75.7699 48.2545C75.7088 48.1371 75.6225 48.0345 75.5173 47.9541" fill="#2F2F2F"/>
</svg>
