<svg width="299" height="62" viewBox="0 0 299 62" fill="none" xmlns="http://www.w3.org/2000/svg">
<path d="M141.558 42.4683L135.805 32.4888V46.1148H132.389V27.8824H136.805L141.948 36.5863L147.097 27.8824H151.507V46.1148H148.098V32.4888L142.344 42.4683H141.558Z" fill="#006BA3"/>
<path d="M167.449 38.2485H161.098V43.0417H168.345V46.1148H157.682V27.8824H168.053V30.9555H161.098V35.1754H167.449V38.2485Z" fill="#006BA3"/>
<path fill-rule="evenodd" clip-rule="evenodd" d="M188.144 43.0868V27.8824H176.748C176.501 35.7294 176.092 39.7624 173.254 43.0739H171.209L171.858 50.734H174.54V46.1212H187.326V50.7469H190.034L190.638 43.0868H188.144ZM179.878 30.9555H184.729L184.71 43.0674H176.962C178.989 40.6193 179.644 36.6893 179.878 30.9555Z" fill="#006BA3"/>
<path d="M195.372 27.8824H198.781V39.2664L209.152 27.8824H210.996V46.1148H207.58V34.7566L197.21 46.1148H195.372V27.8824Z" fill="#006BA3"/>
<path d="M235.075 43.0675L234.445 50.7276H231.77V46.1148H217.166V27.8824H220.581V43.0675H229.166V27.8824H232.582V43.0675H235.075Z" fill="#006BA3"/>
<path d="M239.939 27.8824H243.348V39.2664L253.725 27.8824H255.563V46.1148H252.147V34.7566L241.777 46.1148H239.939V27.8824Z" fill="#006BA3"/>
<path d="M273.739 46.1148V38.2227H265.148V46.1148H261.738V27.8824H265.148V35.1496H273.739V27.8824H277.148V46.1148H273.739Z" fill="#006BA3"/>
<path fill-rule="evenodd" clip-rule="evenodd" d="M286.447 42.6036H293.876L295.428 46.1212H299L290.558 27.3606H289.798L281.356 46.1212H284.928L286.447 42.6036ZM292.662 39.7882H287.675L290.149 34.0673L292.662 39.7882Z" fill="#006BA3"/>
<path fill-rule="evenodd" clip-rule="evenodd" d="M0 46.0826H3.40924L3.42872 39.4274H6.02624C9.27962 39.4274 12.3447 37.6042 12.3447 33.6292C12.3447 29.8152 9.24715 27.8824 6.00026 27.8824H0V46.0826ZM5.31835 36.6442H3.40918V30.6656H5.31835C7.59767 30.6656 8.77954 31.6513 8.77954 33.6034C8.77954 35.5555 7.59767 36.6442 5.31835 36.6442Z" fill="#ED1C2A"/>
<path d="M35.7162 46.0826C33.768 42.4683 32.5991 40.4131 29.9756 38.2291H29.1185V46.0826H25.7092V38.2291H24.8715C22.274 40.4131 21.0727 42.4683 19.131 46.0826H14.936C17.7154 41.328 19.2869 38.7767 21.9623 36.6443L15.1763 27.8824H19.3453L24.8715 35.1625H25.7092V27.8824H29.1185V35.1625H29.9562L35.4889 27.8824H39.6579L32.8914 36.6443C35.5668 38.7767 37.1383 41.3215 39.9176 46.0826H35.7162Z" fill="#ED1C2A"/>
<path fill-rule="evenodd" clip-rule="evenodd" d="M58.7298 43.0352V27.8824H47.4047C47.1189 35.7037 46.7553 39.7367 43.898 43.0352H41.833L42.4824 50.6825H45.1578V46.0825H57.9181V50.6825H60.6195L61.2234 43.0352H58.7298ZM50.5025 30.9491H55.3274V43.0353H47.5933C49.6128 40.5678 50.2687 36.6443 50.5025 30.9491Z" fill="#ED1C2A"/>
<path d="M90.64 0.682127C90.64 0.682127 90.64 7.32436 90.6011 12.9938C95.3336 12.0218 100.251 12.4704 104.725 14.2823V19.8293C111.16 20.5831 116.966 22.7027 119.661 25.0928C125.505 20.757 123.914 12.5492 123.778 11.9308C123.308 11.1635 122.774 10.4372 122.18 9.75963C114.94 1.59696 100.861 0.566162 94.2311 0.566162C91.9972 0.566162 90.6206 0.682127 90.6206 0.682127" fill="url(#paint0_linear_1_159)"/>
<path d="M95.6859 42.2363C95.5507 42.7165 95.1227 43.0583 94.6209 43.0868H94.5495C94.0784 43.0909 93.6508 42.814 93.465 42.3845L90.6402 35.2978C90.6402 35.2978 89.3739 36.9148 89.1012 37.2305C88.9017 37.545 88.575 37.7587 88.2051 37.8168H70.9121C71.0076 40.6123 71.5852 43.371 72.62 45.973L86.3543 46.0117L86.3154 59.6376C92.1922 62.0124 98.7684 62.0332 104.66 59.6956L104.699 46.0696C104.699 46.0696 110.245 45.7282 114.076 43.8792C120.525 40.7674 122.304 35.3944 122.31 33.3328C115.018 39.2212 101.758 38.2613 101.758 38.2613C101.25 38.2536 100.805 37.9237 100.654 37.4431L98.9003 31.6899L95.6859 42.2363Z" fill="url(#paint1_linear_1_159)"/>
<path d="M117.986 26.0721C113.758 28.1852 104.686 27.8502 104.686 27.8502L104.725 14.2243C98.8445 11.8473 92.2635 11.8265 86.3675 14.1663V27.7922L72.6331 27.7471C71.5585 30.3743 70.952 33.1668 70.8408 36L87.4649 36.0515L89.7118 31.9992C89.9326 31.6062 90.1339 31.3871 90.5819 31.4129C91.03 31.4387 91.3027 31.8703 91.4781 32.2891L93.9068 37.2369L97.355 27.0384C97.4929 26.5403 97.9448 26.1917 98.4654 26.1816C98.9707 26.1818 99.4186 26.504 99.5758 26.9804L102.42 36.0837C102.42 36.0837 108.265 36.8826 116.122 34.6535C122.317 32.8882 125.038 28.5782 126.096 24.1586C127.161 19.8921 126.291 15.377 123.713 11.8019C123.713 11.8019 126.07 22.0262 117.979 26.0592" fill="url(#paint2_linear_1_159)"/>
<defs>
<linearGradient id="paint0_linear_1_159" x1="90.6011" y1="25.1009" x2="124.09" y2="25.1009" gradientUnits="userSpaceOnUse">
<stop stop-color="white"/>
<stop offset="0.17" stop-color="white"/>
<stop offset="0.43" stop-color="#D7ECF8"/>
<stop offset="1" stop-color="#76BFEA"/>
</linearGradient>
<linearGradient id="paint1_linear_1_159" x1="122.482" y1="61.3062" x2="122.482" y2="31.3678" gradientUnits="userSpaceOnUse">
<stop stop-color="#BE202E"/>
<stop offset="0.04" stop-color="#BE202E"/>
<stop offset="0.19" stop-color="#D2202D"/>
<stop offset="0.36" stop-color="#E01F2C"/>
<stop offset="0.55" stop-color="#E9212C"/>
<stop offset="0.85" stop-color="#EC222D"/>
<stop offset="1" stop-color="#EC222D"/>
</linearGradient>
<linearGradient id="paint2_linear_1_159" x1="124.158" y1="35.0851" x2="124.158" y2="11.8277" gradientUnits="userSpaceOnUse">
<stop stop-color="#15A4DD"/>
<stop offset="0.15" stop-color="#0793CE"/>
<stop offset="0.41" stop-color="#077BB4"/>
<stop offset="0.56" stop-color="#0072AA"/>
<stop offset="1" stop-color="#046CA4"/>
</linearGradient>
</defs>
</svg>
