<svg width="177" height="44" viewBox="0 0 177 44" fill="none" xmlns="http://www.w3.org/2000/svg">
<path d="M17.1837 0.903564V4.43159H11.0852C8.22047 4.43159 5.81132 5.44161 3.85781 7.46367C1.87002 9.45146 0.876129 11.8425 0.876129 14.6387C0.876129 17.5014 1.87002 19.9287 3.85781 21.9165C5.8456 23.9043 8.25474 24.8982 11.0852 24.8982H19.8267C21.0403 24.8982 22.0664 25.3356 22.9091 26.2126C23.7841 27.0896 24.2236 28.1157 24.2236 29.2951C24.2236 29.9019 24.1147 30.4744 23.895 31.0127C23.6752 31.553 23.3648 32.0147 22.9595 32.4017C22.5543 32.7888 22.0826 33.0932 21.5443 33.311C21.006 33.5307 20.4335 33.6396 19.8267 33.6396H13.7786V30.0793H0.876129V33.6396V39.5022V42.9818H13.7786V39.5022H19.8267C22.6571 39.5022 25.0643 38.5083 27.052 36.5205C29.0741 34.4984 30.0841 32.0913 30.0841 29.2951C30.0841 26.4646 29.0741 24.0575 27.052 22.0697C25.0643 20.0819 22.6551 19.088 19.8267 19.088H11.0852C9.83731 19.088 8.79301 18.6505 7.95233 17.7736C7.10964 16.8986 6.6883 15.8523 6.6883 14.6407C6.6883 14.0681 6.79716 13.5117 7.01691 12.9734C7.23464 12.4352 7.54711 11.9634 7.95233 11.5582C8.35755 11.153 8.82728 10.8425 9.36758 10.6228C9.90585 10.405 10.4784 10.2942 11.0852 10.2942H17.1837V13.806H30.0861V10.2942V4.43159V0.903564H17.1837ZM9.14178 38.345H5.517V34.7202H9.14178V38.345ZM25.4493 9.16721H21.8245V5.54241H25.4493V9.16721Z" fill="#2F2F2F"/>
<path d="M48.2024 11.4798C46.7428 11.4798 45.5029 10.9677 44.4768 9.94359C43.4526 8.91945 42.9406 7.66952 42.9406 6.1938C42.9406 4.75235 43.4526 3.52057 44.4768 2.49442C45.4828 1.45214 46.7246 0.932007 48.2024 0.932007H57.9962V3.95401H48.2024C47.8899 3.95401 47.5935 4.01046 47.3173 4.12335C47.0391 4.23625 46.7972 4.39753 46.5875 4.60518C46.3799 4.81283 46.2186 5.05677 46.1057 5.33498C45.9928 5.61319 45.9364 5.89946 45.9364 6.1938C45.9364 6.81877 46.1541 7.35704 46.5875 7.80862C47.021 8.26021 47.5593 8.48601 48.2024 8.48601H52.7082C54.1657 8.48601 55.4076 8.99807 56.4317 10.0222C57.474 11.0463 57.9941 12.2882 57.9941 13.7458C57.9941 15.1872 57.474 16.4291 56.4317 17.4694C55.4076 18.4935 54.1657 19.0056 52.7082 19.0056H42.9406V15.9836H52.7082C53.0206 15.9836 53.315 15.9271 53.5932 15.8142C53.8714 15.7013 54.1133 15.5441 54.323 15.3445C54.5306 15.1449 54.6919 14.907 54.8048 14.6288C54.9177 14.3506 54.9742 14.0562 54.9742 13.7438C54.9742 13.1369 54.7484 12.6067 54.2968 12.1552C53.8633 11.7036 53.3331 11.4778 52.7082 11.4778H48.2024V11.4798Z" fill="#2F2F2F"/>
<path d="M60.1252 0.929565H75.2049V3.95157H69.1891V19.0072H66.1671V3.95157H60.1252V0.929565Z" fill="#2F2F2F"/>
<path d="M85.4526 15.9855H77.1446L75.6084 19.0075H72.2477L81.2855 0.931885L90.3233 19.0075H86.9626L85.4526 15.9855ZM78.6284 12.9897H83.9426L81.2855 7.67545L78.6284 12.9897Z" fill="#2F2F2F"/>
<path d="M91.9674 0.903564L104.001 11.7396V0.903564H107.023V18.9791V18.9529V19.0054L94.9632 8.16928V18.9791H91.9674V0.903564Z" fill="#2F2F2F"/>
<path d="M110.449 0.929565H116.465C118.965 0.929565 121.091 1.8146 122.845 3.58668C124.617 5.35875 125.502 7.48564 125.502 9.96736C125.502 12.4672 124.617 14.5941 122.845 16.348C121.091 18.1201 118.965 19.0051 116.465 19.0051H110.449V0.929565ZM116.465 15.9852C118.114 15.9852 119.529 15.4025 120.71 14.2393C121.892 13.0418 122.482 11.6185 122.482 9.96736C122.482 8.31826 121.892 6.90302 120.71 5.72163C119.529 4.54025 118.114 3.94956 116.465 3.94956H113.443V15.9831H116.465V15.9852Z" fill="#2F2F2F"/>
<path d="M161.822 0.929565H167.838C170.338 0.929565 172.465 1.8146 174.219 3.58668C175.991 5.35875 176.876 7.48564 176.876 9.96736C176.876 12.4672 175.991 14.5941 174.219 16.348C172.465 18.1201 170.338 19.0051 167.838 19.0051H161.822V0.929565ZM167.84 15.9852C169.489 15.9852 170.905 15.4025 172.086 14.2393C173.267 13.0418 173.858 11.6185 173.858 9.96736C173.858 8.31826 173.267 6.90302 172.086 5.72163C170.905 4.54025 169.489 3.94956 167.84 3.94956H164.818V15.9831H167.84V15.9852Z" fill="#2F2F2F"/>
<path d="M137.927 15.9855H129.619L128.083 19.0075H124.722L133.76 0.931885L142.797 19.0075H139.437L137.927 15.9855ZM131.103 12.9897H136.417L133.76 7.67545L131.103 12.9897Z" fill="#2F2F2F"/>
<path d="M156.033 19.0051L152.543 12.9894H147.438V19.0051H144.443V0.929565H153.48C155.129 0.929565 156.545 1.52026 157.726 2.70164C158.907 3.88303 159.498 5.29827 159.498 6.94737C159.498 8.19729 159.141 9.33433 158.43 10.3585C157.734 11.3665 156.849 12.0862 155.773 12.5196L159.496 19.0051H156.033ZM153.48 3.95157H147.438V9.94316L153.48 9.96937C154.297 9.96937 154.998 9.67503 155.589 9.08434C156.18 8.49365 156.474 7.782 156.474 6.94938C156.474 6.1329 156.178 5.43133 155.589 4.84064C155 4.24591 154.297 3.95157 153.48 3.95157Z" fill="#2F2F2F"/>
<path d="M45.9364 37.0769V43.0927H42.9406V25.0171H51.9784C53.6275 25.0171 55.0427 25.6078 56.2241 26.7892C57.4055 27.9706 57.9962 29.3939 57.9962 31.0611C57.9962 32.7102 57.4055 34.1335 56.2241 35.333C55.0427 36.4963 53.6275 37.0789 51.9784 37.0789H45.9364V37.0769ZM45.9364 28.0391V34.0549H51.9784C52.7948 34.0549 53.4964 33.7605 54.0871 33.1698C54.6778 32.5792 54.9721 31.8776 54.9721 31.0611C54.9721 30.2285 54.6758 29.5168 54.0871 28.9261C53.4964 28.3355 52.7928 28.0411 51.9784 28.0411H45.9364V28.0391Z" fill="#2F2F2F"/>
<path d="M60.4494 25.0189H63.4452V40.0745H72.483V43.0965H60.4494V25.0189Z" fill="#2F2F2F"/>
<path d="M88.8594 35.5667C88.8594 37.6513 88.1216 39.4314 86.6458 40.9071C85.152 42.3667 83.3718 43.0945 81.3054 43.0945C79.2571 43.0945 77.4851 42.3647 75.9912 40.9071C74.5336 39.4133 73.8038 37.6351 73.8038 35.5667V25.0189H76.7996V35.5667C76.7996 36.8166 77.2331 37.8771 78.102 38.7439C78.987 39.629 80.0555 40.0725 81.3054 40.0725C82.5553 40.0725 83.6138 39.629 84.4827 38.7439C85.3858 37.8589 85.8374 36.7985 85.8374 35.5667V25.0189H88.8594V35.5667Z" fill="#2F2F2F"/>
<path d="M96.5744 35.5667C95.1148 35.5667 93.875 35.0546 92.8489 34.0305C91.8247 33.0064 91.3127 31.7564 91.3127 30.2807C91.3127 28.8393 91.8247 27.6075 92.8489 26.5813C93.8548 25.5391 95.0967 25.0189 96.5744 25.0189H106.368V28.0409H96.5744C96.262 28.0409 95.9656 28.0974 95.6894 28.2103C95.4112 28.3232 95.1693 28.4845 94.9596 28.6921C94.752 28.8998 94.5907 29.1437 94.4778 29.4219C94.3649 29.7001 94.3084 29.9864 94.3084 30.2807C94.3084 30.9057 94.5262 31.444 94.9596 31.8956C95.3931 32.3471 95.9313 32.5729 96.5744 32.5729H101.08C102.538 32.5729 103.78 33.085 104.804 34.1091C105.846 35.1333 106.366 36.3751 106.366 37.8327C106.366 39.2741 105.846 40.516 104.804 41.5563C103.78 42.5804 102.538 43.0925 101.08 43.0925H91.3127V40.0705H101.08C101.393 40.0705 101.687 40.014 101.965 39.9011C102.243 39.7882 102.485 39.631 102.695 39.4314C102.903 39.2318 103.064 38.9939 103.177 38.7157C103.29 38.4375 103.346 38.1432 103.346 37.8307C103.346 37.2239 103.12 36.6937 102.669 36.2421C102.235 35.7905 101.705 35.5647 101.08 35.5647H96.5744V35.5667Z" fill="#2F2F2F"/>
<path d="M111.947 40.0989H108.951V43.0947H111.947V40.0989Z" fill="#2F2F2F"/>
</svg>
