<svg width="30" height="30" viewBox="0 0 30 30" fill="none" xmlns="http://www.w3.org/2000/svg">
<path d="M22.5 16.25C21.4005 16.2462 20.3307 16.6061 19.457 17.2736C18.5834 17.9411 17.955 18.8788 17.6697 19.9406C17.3844 21.0024 17.4583 22.1287 17.8798 23.1442C18.3012 24.1597 19.0467 25.0073 20 25.555V29.0962C19.9999 29.2746 20.0527 29.4489 20.1517 29.5972C20.2507 29.7455 20.3915 29.8611 20.5563 29.9293C20.721 29.9976 20.9023 30.0154 21.0772 29.9806C21.2521 29.9458 21.4127 29.8599 21.5387 29.7337L22.5 28.7737L23.4612 29.7337C23.5873 29.8599 23.7479 29.9458 23.9228 29.9806C24.0977 30.0154 24.2789 29.9976 24.4437 29.9293C24.6084 29.8611 24.7492 29.7455 24.8482 29.5972C24.9472 29.4489 25.0001 29.2746 25 29.0962V25.555C25.9533 25.0073 26.6987 24.1597 27.1202 23.1442C27.5417 22.1287 27.6155 21.0024 27.3302 19.9406C27.0449 18.8788 26.4166 17.9411 25.5429 17.2736C24.6693 16.6061 23.5994 16.2462 22.5 16.25Z" fill="#2C4DC3" fill-opacity="0.8"/>
<path d="M15 21.25C14.9985 19.933 15.3442 18.6388 16.0023 17.498C16.6603 16.3572 17.6076 15.4101 18.7484 14.752C19.8893 14.094 21.1834 13.7484 22.5004 13.75C23.8175 13.7516 25.1108 14.1004 26.25 14.7612V6.25C26.248 4.59301 25.5889 3.00445 24.4172 1.83277C23.2456 0.661102 21.657 0.00198482 20 0L10 0C8.34301 0.00198482 6.75445 0.661102 5.58277 1.83277C4.4111 3.00445 3.75198 4.59301 3.75 6.25V21.25C3.75198 22.907 4.4111 24.4956 5.58277 25.6672C6.75445 26.8389 8.34301 27.498 10 27.5H17.5V26.825C16.7138 26.1245 16.0847 25.2656 15.6538 24.3048C15.223 23.344 15.0002 22.303 15 21.25ZM10 5H20C20.3315 5 20.6495 5.1317 20.8839 5.36612C21.1183 5.60054 21.25 5.91848 21.25 6.25C21.25 6.58152 21.1183 6.89946 20.8839 7.13388C20.6495 7.3683 20.3315 7.5 20 7.5H10C9.66848 7.5 9.35054 7.3683 9.11612 7.13388C8.8817 6.89946 8.75 6.58152 8.75 6.25C8.75 5.91848 8.8817 5.60054 9.11612 5.36612C9.35054 5.1317 9.66848 5 10 5ZM10 10H20C20.3315 10 20.6495 10.1317 20.8839 10.3661C21.1183 10.6005 21.25 10.9185 21.25 11.25C21.25 11.5815 21.1183 11.8995 20.8839 12.1339C20.6495 12.3683 20.3315 12.5 20 12.5H10C9.66848 12.5 9.35054 12.3683 9.11612 12.1339C8.8817 11.8995 8.75 11.5815 8.75 11.25C8.75 10.9185 8.8817 10.6005 9.11612 10.3661C9.35054 10.1317 9.66848 10 10 10ZM13.75 17.5H10C9.66848 17.5 9.35054 17.3683 9.11612 17.1339C8.8817 16.8995 8.75 16.5815 8.75 16.25C8.75 15.9185 8.8817 15.6005 9.11612 15.3661C9.35054 15.1317 9.66848 15 10 15H13.75C14.0815 15 14.3995 15.1317 14.6339 15.3661C14.8683 15.6005 15 15.9185 15 16.25C15 16.5815 14.8683 16.8995 14.6339 17.1339C14.3995 17.3683 14.0815 17.5 13.75 17.5Z" fill="#2C4DC3"/>
</svg>
